<svg width="44" height="44" viewBox="0 0 44 44" fill="none" xmlns="http://www.w3.org/2000/svg">
<path d="M19.616 31.6708C19.9827 31.3042 20.1587 30.8611 20.144 30.3417C20.1293 29.8222 19.9381 29.3792 19.5702 29.0125L14.391 23.8333H34.8327C35.3521 23.8333 35.7878 23.6573 36.1398 23.3053C36.4918 22.9533 36.6672 22.5182 36.666 22C36.666 21.4806 36.49 21.0448 36.138 20.6928C35.786 20.3408 35.3509 20.1655 34.8327 20.1667H14.391L19.616 14.9417C19.9827 14.575 20.166 14.1393 20.166 13.6345C20.166 13.1297 19.9827 12.6946 19.616 12.3292C19.2493 11.9625 18.8136 11.7792 18.3088 11.7792C17.8041 11.7792 17.369 11.9625 17.0035 12.3292L8.61601 20.7167C8.43268 20.9 8.30251 21.0986 8.22551 21.3125C8.14851 21.5264 8.11062 21.7556 8.11184 22C8.11184 22.2445 8.15034 22.4736 8.22734 22.6875C8.30434 22.9014 8.4339 23.1 8.61601 23.2833L17.0493 31.7167C17.3855 32.0528 17.8053 32.2208 18.3088 32.2208C18.8124 32.2208 19.2481 32.0375 19.616 31.6708Z" fill="#2C3637"/>
</svg>
