<svg width="44" height="44" viewBox="0 0 44 44" fill="none" xmlns="http://www.w3.org/2000/svg">
<path d="M24.384 31.6708C24.0173 31.3042 23.8413 30.8611 23.856 30.3417C23.8707 29.8222 24.0619 29.3792 24.4298 29.0125L29.609 23.8333H9.16732C8.64788 23.8333 8.21216 23.6573 7.86016 23.3053C7.50816 22.9533 7.33277 22.5182 7.33399 22C7.33399 21.4806 7.50999 21.0448 7.86199 20.6928C8.21399 20.3408 8.6491 20.1655 9.16732 20.1667H29.609L24.384 14.9417C24.0173 14.575 23.834 14.1393 23.834 13.6345C23.834 13.1297 24.0173 12.6946 24.384 12.3292C24.7507 11.9625 25.1864 11.7792 25.6912 11.7792C26.1959 11.7792 26.631 11.9625 26.9965 12.3292L35.384 20.7167C35.5673 20.9 35.6975 21.0986 35.7745 21.3125C35.8515 21.5264 35.8894 21.7556 35.8882 22C35.8882 22.2445 35.8497 22.4736 35.7727 22.6875C35.6957 22.9014 35.5661 23.1 35.384 23.2833L26.9507 31.7167C26.6145 32.0528 26.1947 32.2208 25.6912 32.2208C25.1876 32.2208 24.7519 32.0375 24.384 31.6708Z" fill="#2C3637"/>
</svg>
