<svg width="648" height="183" viewBox="0 0 648 183" fill="none" xmlns="http://www.w3.org/2000/svg">
<g clip-path="url(#clip0_0_64)">
<path fill-rule="evenodd" clip-rule="evenodd" d="M346.844 64.1413L346.746 63.9638C346.706 64.0032 346.687 64.0427 346.667 64.0822C346.49 64.3386 346.509 64.3781 346.214 64.5557L346.174 64.5359C346.095 64.4965 346.036 64.4767 345.977 64.4373C345.938 64.3781 345.938 64.3781 345.879 64.2992L345.839 64.3386C345.76 64.2794 345.721 64.2005 345.701 64.0427C345.701 64.0032 345.681 63.9835 345.662 63.9638L345.425 64.2203C345.248 63.9046 345.248 63.8257 345.248 63.4311C345.248 63.3916 345.248 63.3916 345.228 63.3719C345.011 63.5889 345.051 63.727 344.834 63.8257C344.676 63.8849 344.775 63.8454 344.696 63.8257C344.637 63.5494 344.735 63.8059 344.814 63.3916C344.656 63.2732 344.282 63.1351 344.105 63.0562C343.927 63.4113 343.927 63.6678 343.474 63.7467C343.316 63.3719 343.356 63.3324 343.198 63.0759L343.868 62.7208C344.321 62.5235 344.893 62.5827 345.13 62.0895C345.208 61.9316 345.248 61.5567 345.287 61.3595L344.854 60.9451L345.327 59.7219C345.622 59.2484 345.76 59.5838 345.918 58.6367C345.524 58.1238 345.189 57.7292 344.459 57.67L344.243 58.183L342.114 58.2224C342.094 59.4851 341.956 59.4851 341.325 60.0573C341.345 59.2484 342.232 58.8932 341.483 58.0054C340.793 57.1768 340.616 58.0646 339.335 57.6897C338.724 57.5122 338.724 57.2162 338.329 56.9005C338.724 56.6835 338.881 56.7822 339.354 56.8413C339.394 56.0719 339.157 55.8351 339.906 55.5392C339.887 56.2495 339.177 56.9203 340.3 56.8808C340.576 56.4468 340.498 56.3481 340.498 55.7759L341.7 55.1643C341.72 55.1249 341.759 55.1249 341.798 55.1051C341.641 54.2568 341.325 54.5724 341.542 53.2111C341.897 53.0927 342.114 53.0927 342.39 52.8757C343.119 52.3035 343.356 50.8632 342.449 50.5081C341.542 50.4095 341.286 51.0408 340.498 50.5476C340.005 50.2516 340.241 49.7386 339.689 49.4624C339.67 49.4427 339.611 49.4427 339.591 49.423L339.414 49.3243C339.394 49.2849 339.354 49.2849 339.335 49.2651C339.808 48.397 339.177 48.0616 338.704 47.4303C338.389 47.8446 338.27 48.2984 337.58 48.2984C337.442 47.6078 337.797 47.233 338.29 47.0751L338.467 47.2724C338.467 47.2527 338.487 47.3316 338.507 47.3711C340.241 46.9765 339.591 48.7522 341.7 48.0419C342.252 47.8643 342.212 47.6276 342.488 47.2724L343.986 48.5746C344.676 48.1603 346.568 47.3316 347.534 47.8051C347.751 48.7522 347.396 48.3378 346.647 48.8508C346.214 49.1468 345.859 49.6005 346.115 50.2319C346.726 50.4884 346.43 50.1727 347.081 49.9754C346.943 50.5278 347.002 50.8238 347.337 51.2973C347.85 51.0013 347.83 50.6857 348.204 50.3503C348.894 49.7386 348.027 50.7843 348.599 50.074C348.441 49.423 348.461 49.4822 348.106 49.1468C348.815 48.9297 348.342 49.1665 348.658 48.8508L348.303 48.2786C348.677 48.1997 348.796 48.2392 349.072 48.1997C349.426 48.1405 349.939 47.7065 350.648 47.963L351.673 48.3576C352.166 48.5746 352.166 48.5746 352.363 49.0678C351.299 49.5611 350.432 48.91 349.505 49.857C350.097 50.37 349.998 49.7781 350.412 50.4686C350.905 51.2776 350.412 52.0076 352.462 51.9681L352.639 53.073C353.546 53.29 354.571 53.4281 355.399 53.0138C355.142 52.3035 354.748 52.4811 355.32 51.534C356.64 51.4749 355.596 53.8622 359.38 53.6451C359.498 54.2962 359.932 54.6711 360.622 54.9276C360.583 54.9473 360.523 54.9473 360.504 55.0065C360.405 55.3222 360.149 55.1249 359.873 55.5195C360.543 55.8549 360.464 56.1311 360.937 56.6638C360.839 57.0584 360.602 57.5713 360.267 57.9265L358.651 57.8278C358.789 58.8932 359.262 58.9327 359.912 59.4457C358.178 59.9981 358.434 58.8143 356.857 59.0708L357.173 60.1362C353.664 59.5443 354.374 58.9524 353.073 58.4789L351.535 58.1435C351.772 58.9524 351.338 58.7946 351.772 59.2878C351.91 59.4457 352.679 59.9784 352.836 60.0967L352.659 60.7873C352.659 60.807 352.619 60.8267 352.619 60.8662C353.664 62.0895 354.236 60.6097 355.3 62.8392H360.326C360.799 62.2078 360.74 61.6554 361.312 61.3397C361.41 63.1549 361.548 63.6086 362.849 64.5754C362.258 64.9503 361.272 63.5889 360.208 64.0032L360.09 65.2067C360.031 65.0884 359.932 64.97 359.834 64.8713C359.538 64.7727 352.462 63.8651 352.166 63.9046V64.6543C351.93 64.5754 351.89 64.457 351.693 64.3386L351.2 64.0427C350.786 63.7862 350.609 63.51 350.333 63.3522C350.116 63.5495 350.057 63.6876 349.939 63.9046C349.643 63.944 349.781 63.8849 349.466 63.8651C349.367 64.0032 349.348 64.0624 349.269 64.1808C349.15 64.3189 349.249 64.2203 349.15 64.3189L348.421 64.7332C347.771 64.0822 347.633 64.457 346.923 64.2005L346.844 64.1413ZM343.789 81.6021C343.73 81.6416 343.671 81.7008 343.533 81.8192L343.198 81.3851L342.291 81.5035C341.818 82.3322 342.547 82.4308 342.055 82.9043C341.444 83.4765 341.365 82.3716 341.325 82.0757L340.951 81.8784C340.498 81.6416 340.478 81.464 340.34 81.0103C339.315 80.8524 339.63 81.03 338.822 81.1484C338.349 79.7476 338.743 80.4776 338.034 79.9646C337.718 79.7476 337.62 79.0965 337.265 78.8203C337.245 78.8005 337.226 78.7808 337.206 78.7611L336.989 78.6822C336.989 78.6822 336.634 78.7216 336.536 78.7216C336.477 79.3332 336.516 79.6292 336.122 79.9449C335.609 79.7476 335.964 79.9843 335.728 79.4121C335.57 79.0176 335.57 79.057 335.156 78.9189C335.511 80.1027 335.136 79.7081 334.86 80.4381C334.368 81.7205 335.097 80.8524 333.973 81.3851L334.348 80.9313C334.249 80.6749 334.23 80.6551 334.151 80.4381C334.111 80.3 334.092 80.2605 334.052 80.1422C333.973 79.9251 333.776 79.9054 333.619 79.9449L333.402 80.0435C333.382 80.0238 333.343 80.0632 333.323 80.0632C333.146 79.6686 333.323 79.6489 332.929 79.5108C331.983 79.1557 333.599 79.9843 331.115 79.1557C330.524 79.5305 329.381 80.3 329.125 79.1754C329.578 78.6427 330.13 78.84 330.642 78.5638L330.82 78.4651C331.667 78.0705 332.278 77.7154 333.244 77.9719C334.506 78.3073 333.934 78.0113 334.742 77.814C334.762 77.8338 334.782 77.8732 334.782 77.893L334.86 78.0903C334.998 78.4059 334.998 78.4651 335.274 78.6032C336.082 77.9324 334.959 77.9521 336.082 77.5773C336.437 77.8535 336.418 77.7746 336.556 78.2678C336.792 78.0508 337.068 77.8535 337.147 77.5181C337.245 77.0249 336.969 77.7154 337.147 77.084C337.305 76.5513 337.955 75.9792 338.428 75.6832C338.98 75.3281 338.546 75.5254 339.197 75.4465C340.182 75.3281 339.65 75.3084 339.689 74.7954C339.906 74.6178 339.867 74.6376 340.222 74.4797C341.306 74.0062 340.754 73.8286 341.03 73.2762C341.523 72.7632 341.582 73.0592 341.759 72.2503C342.173 72.2503 342.646 72.27 343.001 72.1319C343.632 71.8557 343.158 71.8162 343.533 71.3624C343.848 71.7176 343.75 71.7965 344.026 72.1122C344.913 72.053 344.873 71.5992 344.578 70.8889L344.854 70.7508C345.07 70.6127 345.228 70.3759 345.268 70.08C345.307 69.5473 345.13 69.3697 344.873 69.1527C344.085 69.784 343.494 69.4486 342.804 69.9024L342.567 70.0997C342.252 69.5867 342.094 69.8432 341.936 69.2711L342.725 69.4092L343.139 68.6397C343.651 68.837 343.178 68.7976 343.553 68.9159C343.71 68.9554 343.908 68.8962 343.986 68.8173C344.006 68.7976 344.321 68.1662 344.637 67.4559L345.149 67.89C345.504 67.673 346.43 67.2586 346.923 67.4954C347.041 67.9689 346.864 67.7519 346.47 68.0084C346.253 68.1465 346.076 68.3832 346.194 68.6989C346.49 68.837 346.352 68.6792 346.687 68.5608C346.608 68.837 346.647 68.9949 346.805 69.2119C347.061 69.054 347.061 68.8962 347.239 68.7384C347.593 68.4227 347.14 68.9554 347.436 68.6003C347.357 68.2846 347.357 68.3043 347.179 68.1267C347.534 68.0281 347.298 68.1267 347.455 67.9886L347.278 67.6927C347.455 67.6532 347.515 67.673 347.672 67.6532C347.85 67.6138 348.106 67.3967 348.461 67.5349L348.973 67.7322C349.229 67.8308 349.21 67.8505 349.308 68.0873C348.776 68.324 348.342 68.0084 347.889 68.4819C348.185 68.7384 348.126 68.4424 348.342 68.7976C348.599 69.2119 348.342 69.567 349.367 69.5473L349.446 70.0997C349.899 70.2181 350.412 70.2773 350.826 70.08C350.708 69.7249 350.491 69.8038 350.786 69.3303C351.457 69.3105 350.905 70.5338 352.895 70.3759L353.014 69.7249C353.428 69.567 352.955 69.9024 353.329 69.7249C353.152 69.2908 353.211 69.8038 353.073 69.2908C353.802 69.2711 353.29 69.4289 353.684 69.6459C353.94 69.784 353.94 69.5473 354.039 69.3894L354.433 69.4289C354.551 70.0997 354.492 69.9419 354.472 70.6127C354.807 70.6324 355.142 70.6916 355.418 70.5732L354.945 70.3562C355.083 69.9419 355.064 70.0011 355.596 69.9813C355.931 69.9616 356.187 69.9813 356.522 70.0405C356.581 70.1589 356.601 70.3957 356.68 70.5535C356.818 70.81 357.113 70.3365 356.68 70.5535C356.66 70.5732 357.133 69.9616 357.567 69.1724C357.705 69.2316 357.862 69.2908 358.06 69.3105L357.705 69.5867C357.468 69.7446 357.508 69.6854 357.251 69.863C358.947 70.1392 358.533 69.863 360.05 70.4154C361.667 70.9876 362.967 70.3167 364.879 70.593C369.354 71.2638 367.54 72.0924 367.777 73.8089C367.836 74.3022 368.112 74.0851 367.599 74.8151C367.264 75.2886 367.678 74.8151 367.304 75.2097L366.259 74.7757C365.924 75.2492 366.042 75.4267 365.55 75.7424L365.175 75.9397C365.786 76.7092 365.51 75.8016 366.003 76.65C364.919 76.7684 364.505 77.1038 363.677 77.1038C364.032 76.65 364.603 75.624 364.465 74.8349C364.032 74.6376 363.401 74.7954 363.105 75.1505L362.889 75.4859C362.869 75.5057 362.849 75.5648 362.83 75.6043C362.199 75.2294 362.199 74.894 361.45 74.6573C360.957 74.6967 361.095 75.1111 360.543 75.3478C359.4 75.8016 359.814 76.0186 359.045 76.4527L359.025 75.0519C358.414 75.3281 358.237 75.5846 358.04 76.3146C356.049 76.1962 356.089 75.5057 354.926 74.6376C354.551 74.3613 354.729 74.4797 354.354 74.164C353.999 73.8681 353.743 73.6313 353.191 73.5327L352.876 74.5192L352.284 74.0457C352.265 74.0654 352.225 74.0851 352.225 74.1443C352.166 74.5389 352.087 74.46 351.811 74.7362L351.141 75.2295C351.082 76.2751 351.181 77.4392 350.885 78.327C351.319 78.9781 351.259 78.3862 351.397 79.1951L350.668 79.0768C350.648 79.057 350.589 79.0373 350.55 79.0176C350.235 79.7673 350.648 79.4713 350.057 79.6489C349.426 79.1754 349.742 79.2346 349.328 78.6624L348.815 79.274L348.658 78.9189C348.48 78.7216 348.559 78.7808 348.382 78.623L347.534 78.9781C346.844 78.327 347.574 78.4651 346.647 78.327C346.194 78.9189 346.588 78.9781 346.292 79.6884L345.583 79.1951C345.543 79.1754 345.484 79.1557 345.445 79.1557L344.972 78.9584C344.893 78.9189 344.992 78.8794 344.578 78.7216C343.356 79.4911 342.449 78.9189 341.444 78.4651L341.779 80.6749C342.311 80.8327 342.607 81.0497 343.159 81.3259C343.533 81.4838 343.651 81.5824 343.789 81.6021ZM330.8 135.8C330.426 126.053 331.175 135.662 330.682 125.816C330.603 124.356 330.327 122.896 330.288 121.436C330.268 120.667 330.189 119.799 330.366 119.128C330.524 118.576 330.169 113.564 330.347 112.183L331.352 111.907L332.002 112.519C332.949 112.163 332.495 112.499 333.481 112.499C334.604 112.499 334.841 112.4 334.565 111.532L333.993 111.868L333.796 111.374L333.422 111.789C333.402 111.769 333.382 111.848 333.343 111.868C333.343 111.197 334.111 110.921 333.343 110.664C333.343 110.664 332.909 110.605 332.811 110.565C332.791 110.605 332.751 110.644 332.751 110.664L332.14 111.138C332.022 110.94 331.884 110.625 331.726 110.368C331.451 109.875 331.569 110.052 331.056 109.776L331.47 109.165C332.259 109.145 332.475 109.342 332.909 108.849L332.692 108.454C333.343 108.454 333.954 108.809 334.368 109.086C335.136 109.618 334.703 109.974 335.255 110.467C335.57 110.151 335.728 109.954 336.201 109.816C336.299 110.013 336.299 109.776 336.24 110.013C336.181 110.23 336.28 110.013 336.063 110.21C336.634 110.348 336.299 110.072 336.536 110.703C336.674 111.059 336.654 110.96 336.693 111.374C337.127 111.197 336.891 111.197 337.305 111.256L337.521 112.065L336.851 111.966C336.989 112.262 337.088 112.361 337.245 112.676C337.699 112.716 337.856 112.736 338.231 112.834C339.276 113.091 339.236 112.558 339.729 113.9L340.655 113.762C340.281 113.466 339.926 113.426 339.808 112.874C339.729 112.42 339.946 112.045 340.143 111.67L340.872 111.966L341.089 111.335C341.483 111.986 341.739 111.986 342.015 112.42C342.331 112.874 342.39 113.229 342.429 113.9H343.099C343.454 113.426 343.178 113.328 343.395 113.111C343.75 112.755 344.558 113.485 344.124 111.118C343.553 111.453 343.967 111.808 343.572 112.341C342.942 112.223 343.139 111.591 342.725 111.216L343.139 110.96L343.356 111.414C343.789 110.329 343.986 110.822 344.893 110.861C345.425 110.881 345.327 110.901 345.622 111.197C346.352 110.98 346.292 111.177 346.687 110.585C346.982 110.131 347.101 110.092 347.396 109.756C347.219 109.461 347.16 109.263 346.805 109.243C346.785 109.243 346.726 109.263 346.706 109.263C345.839 109.243 346.608 108.967 345.543 109.441L344.676 108.948L344.538 109.401C344.361 108.869 344.479 109.145 344.065 108.77L343.77 109.382L343.257 109.105C343.434 108.612 343.434 108.908 343.572 108.356L342.863 107.705C342.41 107.764 342.666 107.862 342.331 107.862L342.193 107.271L343.612 106.975C344.045 105.929 343.789 106.521 343.651 105.554C344.716 105.357 344.223 105.554 344.992 105.653C345.8 104.883 345.405 104.864 345.701 103.66C346.352 103.344 346.017 103.522 346.411 103.147C346.608 102.969 346.43 103.048 346.687 102.989C346.687 102.989 346.943 102.989 347.041 102.969C347.258 102.22 346.825 103.048 347.12 102.437C347.731 102.496 347.574 102.95 347.731 102.654C347.751 102.634 347.79 102.693 347.83 102.693C349.013 101.095 347.968 101.016 347.574 100.385C347.869 100.069 347.83 100.188 348.086 99.9705C348.106 99.9508 348.145 99.9311 348.165 99.8916C348.185 99.8719 348.204 99.8324 348.224 99.8127C348.461 99.5562 348.756 99.3392 349.19 99.5759C349.525 99.7535 349.407 100.207 349.998 100.266C350.511 100.326 350.846 100.227 351.259 99.9508L351.122 98.8657C351.082 98.8459 351.043 98.8262 351.023 98.8262C351.003 98.8262 350.944 98.7867 350.924 98.7867L349.643 98.5105C349.545 98.9643 349.486 99.0432 349.249 99.3589C348.027 98.8262 348.539 98.767 347.988 97.8003C347.948 97.7213 347.83 97.524 347.79 97.4451C347.672 97.2676 347.692 97.307 347.574 97.1886C346.43 97.2675 346.864 97.1294 346.076 97.0111C345.859 97.2478 345.819 97.4649 345.543 97.6424C345.189 97.8595 345.504 97.5438 345.208 97.7608C345.208 97.7608 345.011 98.0173 344.992 98.037C344.676 97.7213 344.637 97.8792 344.361 97.4649C344.105 97.0505 344.243 97.1689 343.907 96.8138C343.888 96.8335 343.848 96.8532 343.829 96.873C343.513 97.1294 343.415 97.4649 343.237 97.8397C343.139 97.7608 343.099 97.6819 343.001 97.603C342.883 97.5043 342.922 97.524 342.705 97.4254C342.843 98.1949 342.823 97.9778 342.311 98.5303C342.212 98.2738 342.055 98.0765 342.035 97.8989L342.173 97.2676C341.72 97.2281 341.345 97.4057 340.931 97.4649C340.261 97.5635 340.774 97.3859 340.084 97.7213C339.236 98.1357 339.039 98.1357 337.955 97.9976C337.64 98.0765 337.679 98.3132 337.383 98.4908C337.285 97.9384 337.245 98.0567 337.462 97.5043L336.851 97.0703C336.615 97.3859 336.654 97.5635 336.161 97.4254L336.516 96.9124L337.107 96.794C337.009 96.5376 336.95 96.3994 336.93 96.3205C337.226 96.0246 337.462 95.8076 337.462 95.1565L337.186 95.2946C337.265 94.8408 337.245 94.3475 337.305 93.8543C338.586 93.2624 338.014 94.683 338.487 92.4732C339.157 92.6508 338.921 92.71 339.473 92.9073C339.827 93.0257 340.281 93.0848 340.576 93.1835C340.793 93.7557 340.833 94.604 341.01 95.334C341.976 95.3538 341.03 95.117 341.858 94.9789C341.897 95.7878 341.818 96.3008 342.587 96.4981C343.592 96.7743 345.839 97.1097 346.312 95.9654C346.391 95.7681 346.49 95.2354 346.568 94.9986C346.746 94.5251 346.765 94.6435 346.923 94.2292C346.115 93.9924 345.76 94.4067 344.913 94.604L344.735 94.4067C344.085 93.7754 344.499 94.0911 344.045 93.953C343.454 93.7951 343.592 94.0121 342.961 93.7162L342.745 92.5719C344.282 92.0194 344.775 92.1773 345.603 93.3019C346.963 92.9862 347.771 92.9073 346.805 91.6248C345.938 91.763 345.13 92.1773 344.617 91.5459C345.189 91.1513 347.258 90.7173 348.086 90.5792C348.815 90.4608 349.367 90.5003 350.018 90.737L351.22 91.6248C351.969 92.3943 352.935 93.223 354.216 93.3611C354.965 93.4597 355.379 93.7162 356.089 93.5781C357.035 93.4005 356.818 92.9862 357.862 92.8876C358.454 93.4005 357.961 93.3413 358.552 93.6176C358.592 93.6373 358.927 93.7359 358.947 93.7359C359.538 93.953 359.538 94.2686 359.932 94.6435C359.952 94.6632 361.056 95.2551 361.154 95.3143C361.824 95.7089 361.706 95.6892 362.337 95.413C362.79 96.0049 361.962 95.3538 362.652 95.8865L363.401 96.3205C364.032 96.5967 364.84 96.5178 365.451 96.1824C365.214 95.5905 365.628 96.1232 364.919 95.6694C364.505 95.413 364.663 95.6103 364.288 95.1762C365.648 95.1565 365.431 95.2354 365.983 94.5646C366.87 95.3143 368.821 96.6165 368.94 97.9186C368.132 98.0765 366.673 98.3921 366.377 99.1024C367.284 99.4773 368.388 99.1221 369.216 99.497C369.196 100.878 366.929 100.247 365.648 100.424C366.161 101.707 367.264 101.509 368.684 101.411C367.974 103.325 367.501 102.496 366.712 103.423C367.718 104.449 368.408 103.818 369.492 104.055C370.3 106.363 370.517 114.768 370.536 117.51C369.768 117.491 368.289 117.214 367.954 117.925C368.683 118.536 369.373 118.122 370.3 118.457C370.773 119.7 370.733 126.093 370.28 127.059C369.314 127.336 368.23 127.276 367.205 127.434C366.574 127.533 366.476 127.671 365.786 127.75C365.589 127.77 365.116 127.789 364.978 127.829C364.308 128.006 364.682 127.849 364.426 128.164C366.042 128.776 368.92 128.085 370.457 128.796L370.517 136.293L375.346 136.253V129.545C375.562 129.111 375.838 129.23 376.154 128.973C375.424 128.736 374.991 128.579 375.109 127.592C375.878 127.079 377.277 127.296 378.263 127.217L375.247 126.645C375.188 125.856 375.405 125.323 375.365 124.929C375.306 124.139 375.149 124.889 374.951 124.238C374.873 123.962 374.735 124.356 374.951 123.863C375.247 123.212 381.219 123.054 383.348 121.436C382.067 121.476 378.756 122.837 374.951 122.975C374.36 121.93 374.34 118.832 374.951 117.727C375.858 117.293 376.745 117.273 377.159 116.504L375.011 116.899C374.459 115.873 374.518 113.663 374.597 112.361C374.695 110.684 375.898 110.625 377.041 109.835C376.725 109.579 376.331 109.658 375.858 109.816C375.306 109.993 374.873 110.191 374.518 109.697C373.749 108.592 374.34 107.369 375.03 106.56C375.149 106.422 375.503 105.968 375.562 105.85C376.114 104.232 374.774 106.087 375.208 104.193C375.306 103.798 375.405 103.561 375.484 103.147C375.858 103.384 376.134 103.66 376.39 103.995C376.449 103.798 376.449 103.68 376.489 103.542L376.666 102.989C377.455 103.226 382.165 104.745 382.934 105.238C383.368 105.515 383.033 105.455 383.545 105.85C384.373 106.067 384.314 105.376 385.023 106.383L384.274 106.659C384.531 106.876 384.787 107.014 385.043 107.231L387.29 108.435C388.611 108.948 387.369 109.066 389.813 109.638C390.641 109.835 391.666 109.48 392.592 109.421C392.099 110.131 392.021 109.559 391.745 110.25C392.671 111.236 393.755 110.625 393.657 109.026L394.859 109.52L394.465 108.77C395.47 108.731 395.332 108.809 395.549 109.697C396.455 109.835 397.224 110.427 398.032 110.289L398.545 110.861C399.55 111.749 399.077 111.098 400.122 112.538C400.713 112.341 400.536 112.025 401.304 112.085C402.605 112.183 403.67 113.841 404.951 111.355C404.221 111.414 403.67 111.611 403.137 111.157C403.788 110.822 404.635 110.98 405.404 110.921C405.345 110.408 405.345 110.585 405.089 110.131L407.099 109.835C406.922 109.046 407.06 109.48 406.587 108.869C407.69 108.809 408.617 108.218 408.163 106.915C407.513 106.777 406.035 107.981 403.65 108.277C402.605 108.415 402.921 108.395 402.369 107.744C401.6 107.803 402.211 107.882 401.521 107.922C400.851 107.961 401.324 107.606 400.476 108.099L400.338 107.586C399.55 107.823 399.235 108.04 399.038 107.192C398.978 106.915 399.038 106.481 398.998 106.185C398.84 105.061 398.604 106.284 397.953 105.041C397.835 104.785 397.914 104.883 397.796 104.686C397.776 104.646 397.756 104.607 397.717 104.587L397.579 104.568C397.323 104.272 397.599 104.725 397.323 104.291L397.047 103.542L395.864 104.272C395.45 103.68 395.746 103.699 395.312 103.265L394.622 103.739C393.834 103.068 393.814 103.66 393.124 103.186C393.42 102.062 394.169 103.029 395.233 102.752C395.785 102.614 395.726 102.456 396.14 102.279C396.574 102.101 397.047 102.101 397.461 102.003L397.697 101.135C397.126 100.957 396.712 101.352 396.12 101.194C396.12 101.194 394.741 100.622 394.721 100.602C394.879 99.9311 395.017 99.714 395.49 99.4181C396.12 99.6746 395.49 99.3786 395.963 99.793C396.455 100.207 395.805 99.9113 396.633 100.188C397.342 100.424 397.756 100.641 398.328 100.523C398.722 100.424 399.097 100.543 399.471 100.76C399.925 101.036 400.161 101.371 400.792 101.47C400.536 100.74 400.772 100.878 400.674 100.503C400.536 99.9705 400.398 100.385 400.319 99.5562C401.225 99.2405 402.231 98.7078 402.034 97.1097C401.482 97.1097 399.708 98.0173 399.333 98.4316C398.801 97.9976 399.018 98.0567 398.584 97.4649C398.111 97.6621 398.19 97.7411 398.052 97.82L397.402 97.9384C397.382 97.9384 397.323 97.9581 397.303 97.9581C396.593 98.1949 397.362 98.3132 396.377 98.3132C396.554 97.2676 397.934 96.9716 397.441 95.5313C397.126 94.6238 397.441 95.413 396.751 94.9L397.047 93.8346C396.002 93.874 395.726 94.17 395.923 95.1762C393.597 95.0578 395.431 95.7484 393.952 96.3205C393.597 96.4586 393.597 96.4784 393.124 96.3994C393.065 95.8076 393.696 94.9592 393.361 94.4067C393.105 94.0121 392.947 93.3413 392.553 93.1046C391.745 93.6176 392.06 93.5189 391.981 94.4659C391.39 93.953 391.686 94.2686 391.114 93.9135C390.404 93.44 390.976 93.5189 390.345 93.0849L389.439 94.2489C388.473 94.2292 388.985 93.9924 388.059 94.0122C387.389 94.0319 387.408 94.3278 386.896 94.0319C387.152 93.3611 387.231 93.7162 388.019 93.4597C388.473 93.3216 389.005 93.1243 389.478 93.0059C389.104 91.8616 389.439 93.0651 388.985 92.414C388.867 92.2365 388.768 92.5324 389.005 91.8024C388.295 91.6446 387.803 91.4078 387.487 90.8949C390.523 91.9011 389.123 89.9873 390.877 88.7246C391.41 88.3497 391.252 88.5273 391.686 87.9749C391.705 87.9551 391.725 87.8959 391.764 87.8762L392.533 87.1265C392.119 85.7059 391.666 86.1005 390.503 86.0611C389.616 86.0413 389.163 85.0746 388.729 84.7194C388.453 84.897 386.443 85.5678 386.048 85.5481C386.305 85.1338 386.167 85.3705 386.364 84.897C386.482 84.5813 386.541 84.5221 386.64 84.2459C385.772 84.1473 385.792 84.3643 385.181 84.5813C384.117 84.9759 384.669 84.5024 383.782 84.4235C383.112 84.9167 383.624 84.8181 382.698 85.0154C381.771 85.2127 382.126 84.8576 381.692 85.7059C381.2 85.627 381.278 85.5284 380.943 85.4889C380.332 85.41 380.746 85.5678 379.997 85.5678L379.82 84.5419C377.612 84.6997 378.48 84.897 377.159 85.4692L377.671 84.5616L376.785 84.1078C376.706 83.5159 376.686 83.2397 376.863 82.6676C376.528 82.5689 376.528 82.49 376.489 82.49C376.095 82.3322 376.39 82.3716 375.996 82.3321C375.385 82.273 375.858 82.5886 375.07 82.3321C375.109 81.7994 376.114 81.76 374.104 81.2667C373.907 81.7205 374.281 81.6613 373.749 81.76L373.414 81.0892C373.394 81.0497 373.375 81.0103 373.355 80.9708C372.98 80.3197 372.882 79.8659 372.941 79.0373C374.656 78.7413 377.533 77.8732 378.558 76.9459C377.1 77.1235 374.636 78.4059 372.941 78.4059C372.902 77.4984 372.98 77.5576 373.808 77.3208C374.557 77.1235 374.813 76.9459 375.247 76.65C375.622 76.8867 375.681 77.0446 376.114 77.2222C376.331 76.7684 376.311 76.1962 376.489 75.6832C376.725 75.0124 376.922 75.19 377.021 74.2824C375.937 74.1246 376.311 74.2824 375.503 74.5981C375.405 74.4403 375.247 74.0654 375.149 73.9865L374.695 73.7892C374.675 73.7892 374.616 73.7892 374.597 73.7497C375.346 73.3749 375.996 72.8619 376.647 72.3686C378.184 71.1651 377.79 73.0789 378.677 71.5992C379.091 71.8951 381.259 72.9803 381.594 71.8162C381.89 70.7311 381.081 72.1516 381.515 71.027C382.323 70.6522 382.027 71.1257 382.599 71.2046C383.565 71.3624 383.683 70.0603 386.679 71.54L387.428 71.7176C388.295 71.5005 388.946 71.4413 389.951 72.0332L390.424 72.5857C390.444 72.6251 390.464 72.6646 390.483 72.704L390.858 73.3946C391.035 73.7497 390.799 73.4735 391.035 73.7694C391.646 73.3354 391.646 73.6313 392.297 73.6511C393.696 73.6905 392.001 73.3157 393.381 73.1973C394.583 73.0986 394.977 74.3613 395.352 74.5192C396.593 74.6178 397.303 74.3022 397.934 75.0519C398.17 74.164 397.934 74.6573 398.446 74.3613L398.781 75.407C399.392 75.407 399.018 75.4859 399.392 75.1505C399.353 75.9594 399.195 75.6043 399.116 76.2949C399.925 76.6894 399.905 76.4527 400.693 76.9657C401.758 77.6759 403.295 77.9521 404.576 77.6759C405.503 77.4786 405.286 77.1432 404.773 76.5119C404.024 76.65 403.196 76.65 402.546 76.0186C402.999 75.5254 403.453 75.92 403.748 75.92C404.182 75.9397 405.246 75.1308 406.015 76.1173C406.153 76.2949 406.114 76.2751 406.232 76.4527C406.39 76.7092 406.429 76.8473 406.744 76.9854C407.316 77.2419 408.006 77.1235 408.518 76.8473C408.183 75.5254 406.468 76.2751 406.35 74.6376C408.637 74.6967 408.696 76.7289 409.937 75.8411C409.977 75.8805 409.977 75.9003 409.997 75.9594C409.997 76.0186 410.036 76.0581 410.056 76.0778L410.371 76.6105C410.391 76.6303 410.43 76.6697 410.47 76.6894C410.509 76.7092 410.548 76.7289 410.588 76.7486L412.184 77.38C413.249 77.9916 414.155 78.4454 414.412 76.7881C415.496 76.65 415.121 76.5316 415.89 76.0384C416.895 75.3873 417.073 74.5192 416.994 73.2367C416.284 73.3157 416.501 73.6905 416.186 73.3354C416.008 73.1381 415.989 72.4673 415.87 72.1713C415.831 72.1516 415.791 72.1319 415.772 72.1713L415.102 71.9149C414.077 71.244 415.634 72.053 414.806 71.6978C413.801 72.0924 414.786 72.0135 413.604 71.7965C413.249 72.5067 413.742 72.3489 413.15 72.487L412.618 70.7903C412.539 70.8297 412.46 70.81 412.441 70.8692C412.421 70.9284 412.342 70.9086 412.322 70.9284C411.258 71.54 411.455 71.2835 410.351 71.1454L410.233 72.7435C408.085 72.9013 408.637 71.974 408.065 71.3624L407.119 71.7373C407.079 70.7903 407.572 71.0665 407.809 70.514C408.104 69.7446 407.907 70.2773 407.71 69.8235C407.631 69.6459 407.533 69.3303 407.395 69.1724C407.316 69.2119 407.079 69.3895 407.04 69.4092C406.961 69.4486 406.902 69.4684 406.823 69.4881C406.429 69.5867 406.015 69.1132 406.015 70.0603C406.015 70.3167 406.409 70.6324 405.621 70.5338C404.97 70.4549 405.266 70.2773 404.281 70.3167C404.044 71.0862 404.024 70.5535 403.886 71.3624C403.768 72.0924 403.985 72.1713 403.551 72.8027C402.802 72.7238 403.492 72.487 402.743 72.3489C402.25 72.2503 401.994 72.487 401.521 72.5067C400.417 72.5462 400.949 71.7767 399.649 71.6189C398.584 71.4808 397.993 71.8359 397.48 71.0467C397.224 70.6324 397.283 70.4154 397.106 70.0405C396.672 69.133 397.165 69.9024 396.396 69.4092C396.712 69.054 397.007 68.324 397.461 68.107L399.274 67.3967C400.063 67.3573 400.24 67.7913 401.482 67.4559C402.408 67.2192 402.605 66.943 402.566 65.9367C402.053 66.1538 402.211 66.2919 401.777 66.1735C402.191 65.404 401.935 65.917 402.625 65.483C403.256 65.0884 403.019 64.9897 403.453 64.6149C403.788 64.3386 404.813 63.8849 404.005 63.1154L403.453 62.8195L404.005 60.9254L402.881 61.32C403.118 60.7478 403.413 59.9784 402.428 60.077C402.053 60.1165 401.915 60.3532 401.56 60.4913C400.476 60.9057 401.304 60.4519 400.595 60.5308C400.122 60.9451 400.181 61.2805 399.787 61.7935C399.609 61.9119 399.412 61.4778 398.229 62.1092C397.54 61.5765 397.48 60.6689 396.475 60.4322C395.667 61.3003 396.239 61.9711 394.346 61.8922C394.327 62.484 394.366 62.5235 394.051 62.9576C393.676 63.4705 393.676 63.6481 393.223 64.023C391.725 64.3189 391.351 63.8454 390.582 63.2338C390.345 63.9046 390.7 63.6481 390.109 64.0822C389.261 63.8849 389.478 63.6481 388.729 63.1549C388.118 62.78 388.098 62.563 387.625 62.0303C387.093 62.9576 386.364 62.78 385.851 63.5297C385.832 63.5495 385.812 63.6086 385.792 63.6284L385.654 63.8257C385.28 64.24 385.299 63.8059 384.964 64.6938L382.934 63.944C382.481 63.727 381.692 63.8257 381.18 63.51L380.746 64.2795C380.648 64.7332 380.727 64.457 380.963 65.0095C380.135 65.2265 380.51 64.97 380.273 65.5816C379.741 64.9897 379.8 65.3646 378.933 65.1673C377.908 64.9305 378.854 64.674 378.007 64.5951C377.435 65.2659 377.514 65.6211 378.184 66.1735C377.671 66.213 377.632 66.2327 377.12 66.134L376.154 65.7197C375.996 65.5619 375.523 64.1808 375.484 63.8059C376.351 63.727 376.331 64.023 376.863 63.8651C377.987 63.51 378.282 62.7997 379.682 62.5038C381.278 62.1684 383.131 61.9316 383.407 60.1757C381.357 59.9192 381.062 60.8662 379.958 61.1227C378.716 60.7676 380.096 60.807 378.933 60.7281C377.553 60.6492 377.928 61.1622 377.869 60.1165L377.731 59.6824C378.204 59.347 378.539 59.1695 378.913 58.834L378.578 58.6565C378.263 58.4986 378.499 58.6959 378.125 58.4395C378.322 57.7095 378.322 58.3803 378.657 57.67C378.815 57.3346 378.874 56.8808 378.992 56.6243C379.662 56.5059 380.175 56.5059 380.865 56.5257C381.929 56.5454 381.909 56.427 382.165 57.2557L381.2 57.7095C381.771 57.9462 382.441 57.8673 383.112 57.8081C383.052 56.4665 382.934 56.8019 383.171 55.4603L383.959 55.3813C384.136 55.7167 384.156 56.1903 384.669 55.914C385.457 55.4603 384.452 55.1643 385.91 55.2038C385.654 56.2297 385.753 55.2038 385.418 56.0719C386.147 56.4073 385.221 55.7562 386.029 56.0719L386.265 57.374C390.247 57.67 389.163 55.2038 390.483 55.263C391.055 56.21 390.641 56.0324 390.404 56.7427C391.252 57.157 392.257 57.0189 393.184 56.8019L393.361 55.697C395.411 55.7562 394.918 55.0262 395.411 54.1976C395.844 53.507 395.746 54.0792 396.318 53.5859C395.391 52.6389 394.524 53.29 393.46 52.7967C393.657 52.3035 393.637 52.3035 394.149 52.0865L395.174 51.6919C395.904 51.4354 396.416 51.8695 396.751 51.9286C397.027 51.9681 397.145 51.9286 397.52 52.0076L397.165 52.5797C397.48 52.8954 397.007 52.6586 397.717 52.8757C397.362 53.2111 397.382 53.1716 397.224 53.803C397.816 54.533 396.929 53.4676 397.618 54.0792C397.973 54.3949 397.953 54.7303 398.486 55.0262C398.821 54.5724 398.88 54.2765 398.742 53.7043C399.392 53.9213 399.097 54.237 399.708 53.9608C399.964 53.3295 399.589 52.8757 399.176 52.5797C398.407 52.0667 398.052 52.4811 398.289 51.534C399.274 51.0803 401.147 51.8892 401.836 52.3232L403.334 51.0211C403.591 51.3762 403.571 51.5932 404.123 51.7905C406.232 52.5008 405.581 50.7449 407.316 51.1197C407.336 51.1 407.355 51.0013 407.355 51.0211L407.73 50.6265C408.065 50.4292 408.282 50.4884 408.597 50.2516C408.439 49.9359 408.637 50.2713 408.301 50.0346C407.907 49.7386 408.045 50.0346 407.868 49.64C408.439 49.344 409.07 49.6005 409.78 49.344C410.292 49.1665 411.376 48.4168 409.997 48.5351L410.962 48.0419C410.371 46.8186 411.928 47.4697 411.751 44.2735L410.805 44.7273C409.937 45.1811 411.022 44.8259 409.898 44.6484C409.287 45.5165 409.445 45.4967 409.09 46.3649C408.163 46.207 408.163 45.7138 407.809 45.0035C407.434 45.1811 406.705 45.4573 406.39 45.6743C406.547 46.5227 406.764 45.99 406.626 46.5622C406.449 46.6213 406.626 46.7003 406.33 46.5622C405.897 46.3649 405.995 46.0886 405.562 45.6546C405.542 45.694 405.542 45.7138 405.522 45.773C405.503 46.5424 405.503 46.72 405.148 47.3316L404.694 46.7989C404.655 46.8384 404.635 46.8581 404.635 46.9567C404.537 47.6276 404.241 47.6276 403.67 47.9432C403.453 48.0616 403.571 48.0419 403.196 48.2195L402.684 47.0357C402.467 47.1146 402.388 47.1343 402.211 47.1935C400.812 47.7065 400.536 46.9962 399.215 48.2786L397.756 47.4697C397.54 47.2527 397.717 47.4697 397.5 47.1935C397.323 46.9765 397.283 46.8384 397.086 46.5819C396.475 46.6411 396.731 46.7397 396.16 46.6608C395.943 46.2267 395.805 45.9308 395.371 45.5362C394.8 45.8519 394.445 46.3846 393.617 46.8976L392.632 47.4895C392.237 47.7262 392.178 47.963 391.686 48.1208V46.6213C391.094 46.5424 391.035 46.2859 390.464 46.503C390.03 46.6608 390.05 46.8778 389.498 47.154C389.695 45.6349 391.035 46.0492 390.365 44.7076C389.458 44.2538 389.261 44.6089 388.295 44.6089C388.433 44.6089 388.492 44.53 388.611 44.1749L387.743 43.8986C387.921 43.6422 387.783 43.7605 388.039 43.583C388.926 42.9516 390.148 42.5965 391.213 42.2611C391.075 41.6889 390.345 40.4854 391.666 40.9589C393.046 41.4324 392.73 40.5051 393.933 41.4719C394.721 42.1032 394.879 41.1167 396.731 41.3535C397.342 41.4324 397.283 41.9257 398.111 41.9059C399.432 41.8665 399.846 40.5643 399.451 39.4792C400.93 39.4003 400.792 39.7949 401.521 40.7024C403.157 40.7616 403.63 40.7419 404.911 40.2486C405.049 39.7357 404.872 39.6765 404.892 39.637L406.725 38.0981C406.981 37.8022 407.277 36.9538 407.493 36.5986C407.966 35.8095 408.026 35.77 407.947 34.7046C407.474 34.8427 407.257 35.0795 406.725 35.1584C406.015 35.257 405.936 34.9611 405.463 35.4149C404.754 36.0857 405.089 36.7565 403.394 36.9932C403.847 35.987 403.354 36.2632 403.236 35.474C403.177 35.0597 403.413 35.4346 403.118 34.8624C402.645 35.1978 402.408 35.8884 401.423 36.4408C401.423 35.4543 401.166 35.0005 400.654 34.1916C400.437 33.8562 400.279 33.4222 399.629 33.8365C399.018 34.2311 399.609 34.0732 399.432 34.8822L398.151 34.8032C397.875 34.4284 398.308 34.6257 397.776 34.4678C397.204 35.474 397.342 35.7305 396.968 36.5986C395.785 36.7959 396.377 35.9673 394.938 36.4211C393.873 36.7565 393.814 36.717 393.302 37.6443C392.848 37.1708 393.262 37.3878 392.927 36.8946C392.494 36.2435 392.632 36.9341 392.316 36.1843C392.947 35.3557 393.184 35.6319 393.913 34.5665C394.268 34.0535 395.056 33.3038 394.583 32.4751C393.913 32.4949 392.888 33.284 392.612 33.2643C391.902 32.9092 392.316 32.9092 391.725 32.3765C390.917 31.6268 391.607 32.3765 390.72 32.0608C390.661 30.9757 390.602 31.7649 391.173 31.1335C391.626 30.6403 391.607 30.7192 391.508 30.0484C391.449 29.6538 391.37 29.2986 391.134 29.0027L390.365 28.2135C389.853 28.3516 389.793 28.6476 389.379 29.0027C388.985 29.3381 388.926 29.4959 388.729 30.0681C388.177 29.713 388.197 30.0878 387.152 30.2457C386.975 30.7192 386.896 31.1532 386.699 31.5084L385.398 31.2124C385.28 31.6662 385.24 32.12 385.083 32.4949L384.649 33.4024C383.88 33.3038 383.604 32.5738 382.816 32.1792C382.461 32.0016 382.087 31.9227 381.732 31.7057C381.318 31.4492 381.318 31.3111 380.884 31.0743C380.746 31.8043 380.786 31.6268 380.963 32.3173L381.042 33.2446C381.18 33.6984 381.278 32.9289 381.535 35.1978C380.904 35.0795 380.332 34.4876 378.48 34.2903C378.066 34.2508 377.809 34.527 377.356 34.7835C374.577 36.3619 376.666 34.2705 376.371 32.7908C374.735 33.2051 375.129 32.7316 374.183 32.85C373.237 32.9684 372.153 34.2311 371.739 32.8697C371.463 31.9424 372.409 31.3111 373 30.7784C373.907 29.9497 374.518 29.3578 375.602 28.7068C376.706 28.0359 376.114 27.4046 378.007 26.6351C378.578 26.3984 379.169 26.2997 379.78 26.1419C380.766 25.8854 380.707 25.6289 381.377 25.3922C382.225 25.9249 382.402 26.4576 383.801 26.5168L384.255 25.8459C384.728 26.0432 384.984 26.2997 385.299 26.3984C386.127 26.6549 385.556 26.4181 386.423 26.1813C387.211 25.9643 388.276 25.984 389.163 25.7868L388.966 25.1357C390.266 25.2146 390.838 24.7213 391.567 24.09C391.469 23.2219 391.37 23.8532 391.252 23.2811C391.134 22.7286 391.331 23.1824 391.508 22.6103C390.365 22.4524 390.582 22.2551 390.326 21.7422C390.01 21.0713 390.089 21.2489 389.478 20.9727L389.537 19.8086C388.059 19.8284 388.611 19.9665 387.645 20.0651C387.31 19.2759 387.448 18.2303 387.349 17.2438C386.797 17.6581 385.91 17.5792 385.299 17.8357C385.299 17.8357 384.412 18.3881 384.393 18.4078C384.058 18.7038 383.979 19.2168 383.663 19.5127C382.264 19.4141 382.678 19.6508 382.501 18.5657L381.909 18.763C381.889 18.763 381.83 18.763 381.811 18.763C381.791 18.763 381.732 18.763 381.712 18.7432C381.653 18.2105 381.83 18.2303 382.303 18.033C383.447 17.5397 382.678 18.0724 383.348 17.303C383.861 16.7111 383.88 17.0859 384.196 16.4546C384.353 16.1586 384.57 15.5865 384.728 15.2511C383.88 13.357 382.855 14.7184 383.821 12.3311C382.599 12.1732 382.658 12.6665 382.52 12.8638C382.185 13.3176 382.678 13.3965 380.904 13.2978L380.628 12.3311C380.175 12.7059 380.411 12.6468 380.135 12.923C379.603 13.4359 379.958 13.0216 379.465 13.2978C378.815 13.653 378.854 14.1462 379.012 14.7578C377.691 14.6789 377.928 14.3435 377.041 14.0476C376.844 14.4224 376.706 14.6395 376.528 15.1722C376.43 15.4878 376.43 15.5076 376.311 15.843L375.996 16.5335C375.168 16.5532 375.247 16.0403 374.873 15.4286C374.478 14.7776 374.124 14.5211 373.966 13.8503L373.158 13.9489C373.591 12.5876 374.616 13.4754 375.76 12.1338C375.72 12.0943 375.661 12.0351 375.622 12.0746L375.208 11.9365C375.149 11.9168 374.695 11.9168 374.577 11.897C375.326 11.68 377.021 10.8908 377.553 10.3778C377.75 10.1805 377.415 10.0819 378.204 9.27297C378.637 8.81919 378.992 8.50351 378.992 7.69459C378.42 7.91162 377.75 8.44432 377.1 8.52324C376.134 8.64162 376.686 8.38513 375.917 8.3654C375.405 8.34567 375.247 8.5627 374.538 8.5627C374.774 7.99054 375.661 6.84622 375.7 6.62919C375.819 6.05703 375.405 6.58973 375.838 5.56378C376.075 4.99162 376.154 5.05081 376.233 4.38L374.853 4.04459L374.538 3.23568C373.079 4.06432 373.059 4.14324 372.961 2.34784C372.172 1.97297 372.33 2.44649 371.798 1.57838C371.758 1.59811 371.699 1.59811 371.68 1.6573L371.068 2.03216C370.852 0.394595 369.925 1.75595 369.196 -0.0789185H368.94L368.762 0.414325C367.126 0.591892 367.619 0.512973 366.653 2.09135C366.279 2.7227 366.417 3.13703 365.963 3.29486C365.254 3.55135 365.825 2.93973 365.904 2.26892C363.736 2.50568 363.992 2.11108 363.697 0.197298C363.066 0.0394599 363.204 0.217027 362.593 0.414325L362.376 1.24297C361.647 1.24297 361.844 1.10487 361.154 0.927298L361.134 2.42676C360.602 1.87432 360.957 1.6573 360.208 1.34162L360.188 2.80162C358.927 1.97297 360.031 1.85459 358.769 1.32189C358.631 2.48595 358.493 3.68946 359.558 3.9854C358.848 4.14324 358.789 4.38 358.237 4.14324C357.508 3.80784 357.271 3.92622 356.759 4.30108C356.483 3.17649 355.753 3.25541 355.793 2.54514C355.832 1.89405 356.818 1.22324 355.3 0.611622C354.512 0.276217 353.802 0.374865 353.112 1.00622C352.58 1.47973 352.6 1.24297 352.166 1.69676C352.245 3.15676 352.876 3.47243 352.935 4.24189L351.89 3.66973L351.989 5.03108L351.24 4.5773C351.279 5.4454 351.634 5.72162 352.008 6.27405C352.915 7.65513 351.91 6.84622 353.467 7.37892L351.693 7.65513C352.166 9.2927 353.408 8.28649 354.531 7.99054C354.591 7.95108 354.906 7.89189 355.064 7.89189L355.832 8.12865C355.221 8.91784 355.34 8.06946 355.024 8.97703C354.63 10.1214 355.379 10.8908 356.227 11.463C356.64 11.7392 357.37 12.0351 357.823 12.2916L357.133 12.5284L357.389 12.9822C357.429 13.3373 357.173 13.7911 356.798 13.9292L356.581 13.0413C354.906 12.6665 355.714 12.2324 354.216 12.1732C354.472 11.4827 354.512 11.897 354.65 11.0684C352.6 11.4432 353.763 11.1868 352.482 10.7132C351.575 10.3976 352.304 10.8316 351.634 10.8119C351.2 10.7922 351.279 10.5554 350.57 10.3581L350.924 11.5813C349.407 11.9957 350.274 12.2127 349.052 11.2657C348.776 11.5813 348.342 12.2719 347.258 11.8181C346.687 11.5813 346.352 11.0486 345.622 10.7724C345.603 11.463 345.898 11.7786 345.603 12.2324C345.208 11.8181 345.287 11.6405 344.972 11.3446L344.775 11.2065C344.755 11.1868 344.696 11.1473 344.676 11.1276C344.656 11.1078 344.617 11.0684 344.578 11.0486C344.183 10.6738 344.459 10.5554 344.026 10.4962C343.395 10.4173 344.203 10.5751 343.395 10.8513C342.902 10.2397 342.429 10.0819 341.503 10.0819C341.444 10.5554 342.114 12.2127 342.39 12.7257C342.745 13.3768 343.375 14.4816 343.77 15.1327L346.47 15.547C346.746 15.1524 346.706 15.1327 347.179 14.9354C347.692 15.1524 347.416 14.9354 347.81 15.3892C347.436 15.8627 346.864 15.9219 346.608 16.4546C347.16 16.573 347.889 16.6913 348.48 16.5335C349.111 16.3559 348.283 16.4743 349.072 16.2968C349.407 16.573 349.722 17.007 349.998 17.1057C351.141 17.5003 351.614 16.1192 351.989 18.3486C352.087 18.8616 352.068 18.9405 352.521 19.197C353.191 19.5916 352.284 18.9405 352.895 19.3746C352.955 19.927 352.62 19.2957 352.856 19.8876C353.802 20.1835 353.802 19.7692 354.65 19.8086L354.315 20.5189C355.379 20.4005 355.596 18.0527 358.395 17.8357C359.262 17.7568 359.676 17.9935 360.405 18.3684L363.342 19.8284C362.652 19.8284 361.982 19.7297 361.292 19.8086C360.366 19.9073 360.326 20.1243 359.262 20.0257C357.113 19.8284 357.527 19.7692 355.99 20.7951C355.576 21.0713 355.004 21.3673 354.729 21.6238C354.157 22.1565 354.472 22.413 353.487 22.5905C352.166 22.8273 351.122 23.2811 350.116 22.8668L349.801 23.7151C348.421 23.6165 348.126 23.3403 347.357 23.2022C346.884 24.4254 347.672 24.6819 348.421 25.1949C348.421 27.0889 347.692 26.6943 345.642 27.01C345.563 28.1149 345.189 27.7992 345.741 28.5686C346.509 29.6538 345.957 28.8843 346.233 29.7327C347.298 29.7327 348.066 29.3381 348.914 28.7265C349.663 28.1938 349.505 27.01 351.062 27.3651C351.2 27.957 351.181 28.1149 350.708 28.4503C350.668 28.47 350.609 28.4897 350.589 28.5095C350.57 28.5292 350.51 28.5489 350.471 28.5686C351.358 29.3578 351.043 29.1013 352.265 29.4762C352.344 30.5219 351.496 30.364 353.723 30.6008C355.024 30.7389 353.802 30.9165 355.103 31.1335C356.759 31.39 357.291 29.93 359.262 30.2259C360.464 30.4035 359.755 30.8376 360.72 30.6797C361.607 30.5416 363.401 28.4305 363.303 29.8905C363.283 30.1273 363.303 30.0286 363.145 30.3246C362.948 30.6995 362.849 30.5811 362.751 31.1138C363.441 31.6662 363.578 31.2913 363.618 32.3568L360.05 32.3173L359.952 33.8168C359.183 33.4419 358.198 33.5603 357.429 33.9943C358.06 34.5862 358.789 35.1189 359.42 35.6122C359.538 36.4605 359.321 36.1646 359.4 36.4605C355.891 36.0068 352.541 35.6319 352.245 35.6516V37.1511C351.752 37.013 351.693 36.7565 351.299 36.5197L350.313 35.9278C349.486 35.4149 349.131 34.8822 348.559 34.5665C348.126 34.9611 347.988 35.257 347.771 35.6911C347.199 35.77 347.436 35.6713 346.844 35.6122C346.647 35.8686 346.608 36.0068 346.43 36.2238C346.214 36.4803 346.391 36.283 346.174 36.5L344.716 37.3089C343.395 36.0265 343.139 36.7368 341.72 36.2238C341.542 36.1646 341.463 36.1449 341.247 36.0659L340.734 37.2497C340.36 37.0722 340.498 37.0919 340.261 36.9735C339.985 36.8354 339.768 36.7565 339.63 36.6381C339.354 35.8686 340.084 36.9735 339.276 34.5665L338.487 34.2311C338.191 34.8427 337.856 34.8624 337.423 35.3162C337.462 35.4149 337.502 35.5332 337.541 35.6319C337.305 35.7305 337.462 35.6713 337.305 35.6122C337.167 35.04 337.383 35.5924 337.541 34.7243C337.265 34.527 336.693 34.31 336.319 34.1324C336.437 33.8365 336.693 33.6589 336.969 33.2249C337.186 32.9092 337.324 32.7316 337.521 32.4357L338.27 30.5811C337.403 30.3049 337.068 30.4627 336.082 30.4627C335.905 30.8573 335.944 30.8376 335.55 31.0546C334.939 30.6403 334.644 30.0484 334.703 29.2592C334.052 29.1408 334.072 29.1211 333.776 29.4959C333.599 29.3776 333.54 29.3381 333.422 29.1803C333.362 29.5551 333.303 29.8116 333.264 30.1668L332.988 30.9954C332.574 29.4368 333.56 29.3973 333.303 27.5624L332.475 27.3257C332.456 26.5957 332.791 26.8719 332.732 25.9841C332.673 24.9976 332.673 25.4908 332.948 24.6819C333.224 23.8532 332.712 23.5376 332.495 22.9654C332.436 22.8076 332.416 22.6103 332.377 22.413L331.49 22.3143L331.115 23.0838C330.702 22.7681 331.076 22.7089 330.406 22.1762H329.953C329.519 22.5116 329.243 22.5905 328.829 22.9851L328.908 24.307C328.218 24.3662 328.218 24.1886 327.863 23.8335C326.878 24.524 327.666 24.8792 327.055 25.7078C326.681 25.5105 326.996 25.6881 326.72 25.4711C326.7 25.4711 326.483 25.2935 326.464 25.2738C326.858 24.3465 326.897 24.2478 326.129 23.4192C324.71 23.3995 325.104 24.2676 324.887 24.6227C324.729 24.8595 324.71 24.7608 324.434 24.9778C323.172 25.9446 324.473 26.5365 324.177 27.4243C323.645 27.523 323.803 27.4638 323.33 27.2862C322.719 28.1938 322.62 27.1086 322.403 28.9238C320.708 30.147 322.265 30.1273 321.24 31.4097C320.787 31.1927 321.122 31.3111 320.57 31.094C320.097 30.9165 320.334 31.1927 320.058 30.66C320.018 30.6797 319.979 30.7192 319.959 30.7192L319.605 30.9757C319.072 31.39 319.191 32.0805 319.664 32.3962L320.728 32.9881C320.472 33.7181 320.275 33.8562 319.782 34.2903C319.565 34.1522 319.171 34.093 318.974 33.8957C318.639 33.5603 319.092 33.6786 318.363 33.3235C317.831 33.2249 317.436 34.1324 316.963 32.6527C315.446 32.9092 316.116 33.8168 315.327 35.3359L314.736 36.2632C314.381 37.2103 314.795 36.3816 314.243 37.0327C314.401 37.5259 314.46 37.6049 314.184 37.9797C314.164 37.96 314.145 37.9205 314.145 37.9008L314.046 37.5851C313.928 36.934 314.243 34.9019 313.238 35.2768C313.021 35.77 313.002 36.0857 312.726 36.6578C311.602 39.0254 312.903 38.3546 313.061 39.2424C313.218 40.0908 312.331 40.3078 313.179 41.1562C313.514 41.4916 313.573 41.5508 314.105 41.6692L314.322 41.1168C314.854 41.5903 314.973 41.0181 315.741 41.5705C316.136 41.8468 316.431 41.9651 316.648 42.4386C316.293 42.3992 315.524 41.9651 315.603 42.557C315.682 43.0897 316.451 43.0305 316.885 42.9911C317.062 42.5965 317.003 43.2081 316.885 42.8332C316.885 42.8135 316.845 42.774 316.845 42.774L316.747 42.6359C317.673 42.5768 318.028 41.8862 318.501 42.4978L317.397 42.8135L318.225 43.2278C318.245 43.2081 318.264 43.1686 318.284 43.1686L318.915 42.8727C319.88 42.774 320.216 43.504 319.269 43.8986C319.25 44.2932 319.23 44.6089 319.348 45.0035C319.605 45.8519 320.216 45.773 319.171 46.7595L319.013 45.3784L318.126 45.2008L317.811 46.0295C316.766 46.0097 316.806 45.3784 316.017 44.8062C315.524 45.0824 315.938 44.964 315.446 45.3192C314.795 45.2995 314.953 45.043 314.302 45.3192L314.125 46.207C313.691 46.4438 314.105 46.2465 313.711 46.3649C312.942 45.9111 313.435 45.694 313.08 44.9246C312.588 44.6878 311.267 44.4313 310.656 44.4708C310.557 43.8789 310.38 43.7408 309.71 43.6816C309.473 44.313 309.158 45.5954 308.705 45.9703C307.601 45.9505 308.646 45.8913 307.897 45.5362L307.325 45.7335C307.384 46.937 307.345 46.3254 307.739 47.154C307.956 47.6276 308.054 47.7657 308.606 47.884C309.631 48.1011 309.454 48.1997 309.158 49.1862C309.592 49.423 309.848 49.6992 310.045 50.1135C309.927 50.2516 309.789 50.3897 309.611 50.587L309.237 49.9951C308.803 49.9557 308.921 49.9162 308.567 50.1135L308.153 50.3897C307.601 50.0741 307.936 50.0543 307.345 49.9557C306.852 50.2713 306.635 50.5278 307.049 51.2184C307.581 52.047 307.581 52.7376 309.257 52.3232C309.71 52.2049 309.789 51.9681 310.144 51.7511C309.868 51.5143 309.868 51.613 309.808 51.2578C310.242 51.534 310.341 51.2184 310.636 50.883L310.774 50.7449C310.774 50.7054 310.814 50.7054 310.893 50.6659L311.188 51.5538C310.893 51.7116 310.794 51.7708 310.479 51.8892C310.794 52.2246 310.557 51.8892 310.755 52.2838C310.104 53.0927 310.36 52.8362 310.538 53.9213C311.109 57.4135 312.607 55.1643 312.568 57.7292C312.174 57.4332 311.878 56.723 311.247 56.9795C310.735 57.1965 311.09 57.8476 309.927 58.1435L309.572 59.3667C309.217 59.1497 308.961 58.7946 308.724 58.4592C308.133 58.6565 308.192 58.834 307.601 58.8932L307.108 58.2027C306.477 58.4789 307.088 58.2224 306.517 58.6762C305.965 58.5184 305.59 58.5381 305.216 58.3211C305.216 57.6503 305.255 58.1238 305.452 57.5516C304.782 57.1768 305.275 57.0584 304.861 56.3876C303.816 56.3284 304.29 57.157 303.856 57.9857C303.008 58.2027 303.816 57.6503 302.732 58.617C302.121 58.4592 302.161 58.3803 301.53 58.6762V59.7219C301.905 59.9784 302.279 60.077 302.358 60.6492C301.944 60.8267 301.727 60.7478 301.215 60.7281C301.313 61.2608 301.451 61.3397 301.569 61.7935C301.865 62.8392 301.372 62.8984 302.121 63.9835C302.555 64.5951 302.299 63.9243 302.299 64.8911C302.752 65.1081 302.831 65.187 302.969 65.6803C303.127 66.213 303.008 66.1735 303.324 66.5484C302.792 66.6273 302.91 66.7062 302.378 66.9035C301.609 64.9108 300.84 65.8578 300.84 66.3313C300.801 67.0613 300.742 67.9097 300.15 68.4622C299.618 68.1267 299.756 68.0281 299.677 67.2981C299.165 67.1403 299.244 67.3573 299.047 66.8838C299.401 66.2524 300.19 66.7654 300.426 66.0749C300.012 65.8578 299.953 66.0551 299.618 66.1538C299.52 65.3843 299.953 64.0822 298.554 64.7924C296.819 65.6605 297.962 65.9367 297.135 67.3967C296.957 67.1797 296.701 66.9232 296.524 66.6865C296.307 66.43 296.307 66.0946 296.051 65.8381L295.42 66.6865C295.124 66.7654 293.232 67.3376 293.094 67.3967C292.582 67.7913 292.877 67.89 292.956 68.0478C293.173 68.5213 293.587 68.7581 294.02 69.1922C294.336 69.5078 294.237 69.2908 294.434 69.7051C294.237 70.1984 293.902 70.297 293.587 70.9284C293.666 72.8619 294.553 72.4081 294.651 73.6313C294.178 74.1049 293.942 74.0654 294.06 74.8546L295.361 75.5648L295.242 74.7165C295.656 74.4994 295.696 74.3021 296.051 74.0457C296.228 73.9273 296.169 74.1443 296.228 73.947C296.248 73.9076 296.287 73.9273 296.307 73.9076C296.228 73.7497 296.011 73.4143 295.991 73.2762C295.873 72.7238 295.853 73.0592 296.189 72.8619C296.642 72.9803 296.307 72.8816 296.602 73.4538C297.667 73.0789 298.593 73.6905 299.047 74.4403L298.711 74.4797C298.495 74.5192 298.613 74.4797 298.436 74.5784L298.593 74.6967C298.869 74.973 298.849 75.19 298.909 75.5648L298.495 75.92L298.652 76.8078C298.475 76.6894 298.298 76.6303 298.022 76.5711L297.174 77.3603C297.095 77.3405 296.622 77.1827 296.583 77.1432C296.228 76.9459 296.504 76.9459 296.051 76.7881C295.834 77.2616 296.011 77.1038 296.09 77.597C296.189 78.1889 295.991 78.1297 295.755 78.2481L295.893 77.5576C295.518 77.3011 295.558 77.4589 295.302 77.3011C294.907 77.0643 295.302 77.2024 294.907 76.9065C294.73 76.7881 294.533 76.7289 294.277 76.7486C294.08 76.7684 294.001 76.8078 293.961 76.8078C293.508 76.8276 294.04 76.8473 293.705 76.7486C292.601 76.4527 292.582 76.4132 291.458 76.433C291.419 75.407 291.478 75.1703 290.551 74.6967C289.664 75.9989 289.999 76.1765 288.758 77.3011L287.91 78.0311C286.294 77.5181 286.787 77.5181 286.156 76.7092C284.993 76.5908 285.151 76.9065 285.19 77.814C284.835 78.1494 284.875 77.9324 284.658 78.3073C284.54 78.5243 284.441 78.8203 284.323 79.0176C284.796 79.787 284.619 80.2803 285.348 80.6749C285.427 80.5762 285.703 81.0103 285.407 80.1619C285.9 80.3197 285.742 80.2803 286.077 80.0238L286.432 79.6884L286.984 80.083C287.004 80.1027 287.023 80.1422 287.023 80.1422L287.102 80.4973C287.279 80.7932 288.462 81.5232 288.758 81.7205C288.876 82.4308 288.659 82.8451 289.586 82.8649C290.059 82.8649 290.137 82.5886 291.005 82.9832C291.813 83.3581 293.35 82.924 294.139 83.4765C294.02 84.3446 293.35 84.6603 292.66 84.9365C292.404 85.0351 292.542 84.9759 292.365 85.0943L292.483 85.5481C293.133 85.8638 294.533 85.4494 295.242 85.2522C295.518 85.627 295.479 85.6073 295.913 85.7849C296.327 85.5678 296.228 85.4889 296.721 85.3903C297.036 85.7257 297.194 85.9821 297.529 86.3373C298.12 86.1597 297.706 86.0808 298.534 85.9822L298.849 86.5346C298.987 86.3965 299.165 86.1795 299.283 86.0413L299.52 86.357C299.539 86.3965 299.618 86.4951 299.638 86.5346L299.855 86.87C299.874 86.9094 299.855 87.2843 299.953 87.0476C299.953 87.0278 299.973 87.1067 299.993 87.1265C300.15 86.8305 300.328 86.7319 300.663 86.6135C300.978 86.4951 301.018 86.6135 301.451 86.6332C301.727 87.0673 301.983 87.0673 302.22 87.4421C302.24 87.4816 302.299 87.6 302.299 87.6197C302.318 87.6394 302.338 87.7184 302.358 87.6986C302.358 87.6789 302.397 87.7578 302.417 87.7776L303.521 87.4816L303.245 88.0932L304.506 87.8959L304.565 88.7443L305.669 89.1389C306.063 89.3954 305.551 89.1784 305.827 89.3165C306.063 88.6851 305.63 88.7049 305.236 88.3694C304.901 88.6654 305.058 88.6457 304.822 88.6259C304.644 88.0538 305.078 87.9946 305.472 87.7381L305.807 88.3497L306.221 87.9749L306.596 88.5076C306.615 88.4878 306.635 88.4484 306.635 88.4286L306.734 88.113L307.187 88.6457C307.66 88.4089 307.64 89.0008 307.897 89.4151C307.956 88.8627 307.936 88.2708 308.113 87.8762C308.626 87.9157 308.468 87.8565 308.586 88.2905C308.823 88.0735 308.784 88.034 309.178 87.9354C309.316 88.843 309.769 88.7443 309.67 89.5335C309.414 89.1389 309.848 89.3165 309.178 89.3757L308.153 90.4608C308.035 90.6581 308.074 90.7173 307.956 90.954C307.522 90.8159 307.64 90.8554 307.404 90.5594C307.069 90.6778 307.207 90.6581 306.931 90.737L306.32 89.7111C305.65 89.8886 304.861 89.6124 304.526 89.0797C304.152 89.5927 304.585 89.4349 303.994 89.573C303.698 88.8627 304.211 89.1389 303.6 88.8035C303.343 89.277 303.718 89.1784 303.205 89.573C303.363 89.7308 303.422 89.7703 303.6 89.9281C303.836 91.5065 303.481 91.25 303.284 92.3351C302.654 92.2365 302.732 92.0194 302.397 92.2562L301.964 92.8284C302.299 93.3413 302.516 93.3413 302.752 93.7951C302.003 93.7754 302.043 93.8346 301.885 93.1638C301.491 93.2032 301.451 93.1835 301.175 93.0454C300.998 93.6767 300.919 93.2427 300.88 94.1305C300.249 94.387 300.072 94.683 299.579 94.8211C299.658 94.2292 299.776 94.683 299.697 94.0516C299.677 93.8543 299.5 93.5584 299.441 93.3216C298.889 93.2427 299.165 93.4597 298.633 92.9467C298.79 92.6705 298.889 92.3154 299.027 92.0194C297.884 91.9603 298.613 92.0786 297.943 92.4338C297.568 91.9603 297.549 91.9405 297.588 91.2105L298.613 90.5397C299.106 90.5594 299.539 90.7173 300.091 90.3819C300.466 90.1649 300.545 89.7308 300.683 89.2178C301.077 89.1784 301.865 88.9219 302.121 88.764L302.634 89.1192C302.989 88.764 302.969 88.7443 302.969 88.0735C302.752 88.1919 302.535 88.2708 302.259 88.3694L301.865 88.0143C301.175 88.2905 301.53 88.0932 300.781 87.8762C300.643 88.0538 300.683 88.0538 300.604 88.1919L299.973 89.06C299.401 88.7838 299.953 88.8824 299.539 88.7443C299.086 88.5865 299.658 88.9811 299.027 88.6654C299.125 88.0538 299.106 88.5076 299.421 87.9749C299.185 87.8367 299.106 87.8367 298.987 87.7776C298.849 87.6986 298.889 87.7381 298.751 87.5211C298.002 88.1327 297.765 87.8762 297.292 87.2843L296.977 87.8367C296.583 87.3238 295.341 87.9551 295.144 88.33C294.572 89.4151 295.44 88.6457 294.158 90.0267C294.493 90.737 295.026 90.8554 295.814 91.1119L296.011 90.5792C297.647 90.6581 296.307 91.6249 297.036 92.6705C297.332 93.0651 298.258 93.4794 297.785 94.4067C297.036 94.2686 297.568 94.0911 296.859 93.4005C296.839 93.3808 296.8 93.3808 296.78 93.3216C296.76 93.2822 296.74 93.2624 296.701 93.2427C295.518 93.8346 295.794 93.223 294.809 94.3475C294.434 94.7816 294.336 94.5251 293.764 94.8013C293.133 95.0973 293.449 95.2354 292.917 95.4327C292.759 95.2551 292.818 95.2946 292.7 95.117L292.503 94.8408C291.931 94.9986 291.557 95.3735 291.044 95.5708L290.768 94.7816L290.354 94.7421C290.019 95.0381 289.96 95.3735 289.526 95.5708C289.605 95.7484 289.645 95.8667 289.724 96.1035C289.349 96.3008 289.211 96.3205 289.073 96.8532C288.817 97.82 289.211 98.0962 289.526 98.1949C290.965 98.6881 289.152 99.5365 289.901 100.76C290.137 101.135 290.374 101.431 290.65 101.766C291.143 102.437 290.867 102.22 291.143 102.871C291.833 102.91 291.793 102.871 292.128 102.516C292.936 102.91 292.877 102.555 293.074 103.542C294.139 103.068 293.39 103.542 294.02 102.752L294.829 102.772V103.403C294.809 103.423 294.75 103.443 294.73 103.463C294.336 103.64 294.336 103.463 294.06 103.739C293.271 104.489 294.75 104.804 294.927 105.455C294.474 105.672 294.71 105.357 294.04 105.87L293.744 106.126C293.981 106.777 294.139 106.363 294.316 107.172C294.474 107.803 294.355 107.981 294.651 108.474L296.425 109.362C296.327 109.796 296.208 109.599 296.287 110.052L298.495 109.934C299.244 109.875 299.815 109.401 300.328 110.052C300.131 110.269 300.407 110.131 299.973 110.289C299.382 110.526 299.559 110.368 299.185 110.802C298.731 110.585 297.903 110.901 297.292 110.96C296.918 111.315 297.135 111.276 296.76 111.473C296.248 110.802 296.898 110.98 296.07 110.605C295.617 110.408 295.578 110.289 295.42 109.717C295.085 109.954 294.947 110.013 294.631 110.191L294.73 110.98C295.341 111.177 295.735 111.118 295.972 111.611C296.307 112.282 296.129 112.44 296.938 112.676C296.977 112.519 296.997 112.341 297.036 112.223C297.135 111.887 297.036 112.124 297.174 111.907C297.371 112.578 297.135 112.598 297.706 112.894C297.194 113.308 297.45 112.953 297.233 113.643L296.76 113.466L296.642 113.919C296.267 113.584 296.09 113.406 295.597 113.525C295.38 114.235 295.696 114.314 294.848 114.511L294.631 114.176C294.296 113.663 294.139 114.354 293.922 113.564C293.764 113.012 293.744 112.558 293.133 112.795C293.114 112.795 293.055 112.874 293.035 112.834C293.015 112.815 292.976 112.874 292.936 112.874C292.542 112.479 292.286 112.479 291.754 112.479C290.886 112.479 291.438 112.242 290.768 111.828C290.019 111.946 289.921 112.499 289.802 113.15C289.862 113.505 291.241 114.531 291.537 114.827C291.892 115.182 291.635 115.005 292.089 115.301C291.379 115.498 291.438 115.596 291.399 116.405C291.32 117.964 291.261 116.78 290.768 117.471C290.492 117.846 290.788 118.418 290.926 118.832C291.202 119.562 291.222 119.424 291.773 119.779C292.286 119.207 293.252 119.483 293.902 119.562C294.612 119.641 294.434 119.483 294.966 119.799C295.42 120.075 295.361 119.957 295.853 120.134C295.972 120.332 296.11 120.489 296.346 120.706L296.859 121.318C297.076 120.726 297.529 120.253 297.923 119.898C298.416 119.463 299.303 119.759 299.993 119.74C299.736 120.45 299.855 120.036 299.323 120.332C299.303 121.062 299.52 121.042 300.249 121.062C300.269 121.042 300.269 120.983 300.269 120.983V120.825C300.269 120.805 300.249 120.726 300.249 120.706L300.367 120.43C300.564 119.878 300.308 120.115 300.643 119.7C300.663 119.72 300.663 119.759 300.683 119.779C300.88 120.628 301.018 120.746 301.116 121.693C301.432 121.851 301.037 121.89 301.412 121.673L301.569 121.555C302.121 121.062 302.279 120.746 302.831 121.515C303.008 121.16 302.89 121.377 303.067 121.2C304.132 121.594 304.684 121.91 304.625 120.45C305.098 120.647 304.92 120.549 305.216 120.884L305.236 120.371C305.314 120.391 305.531 120.43 305.551 120.43C305.847 120.43 305.61 120.45 305.788 120.351C305.728 119.72 305.571 119.7 305.926 119.385L306.3 119.582C306.596 119.365 306.694 119.266 306.891 119.049L307.384 118.556L308.803 118.99C309.119 118.457 308.882 118.733 309.375 118.536C309.454 119.049 309.611 119.207 309.848 119.641L310.045 120.016C310.282 119.957 310.025 120.213 310.36 119.759L311.07 119.917C311.366 119.542 311.523 119.049 312.174 119.089C312.174 119.207 312.134 119.424 312.134 119.424C312.174 119.799 312.055 119.424 312.253 119.7L313.613 118.733L314.302 119.148C314.775 118.931 315.229 118.891 315.524 118.319C315.308 118.063 315.308 118.023 315.071 117.826C314.775 118.556 315.189 118.043 314.618 118.26C314.559 117.925 314.48 117.786 314.638 117.471C314.657 117.412 314.854 117.116 315.111 117.037L317.535 116.918L317.949 117.254C319.427 116.425 325.557 117.708 327.075 118.398C327.134 119.858 326.286 119.069 325.38 119.542C326.208 119.621 326.523 119.464 327.114 119.838C327.37 122.285 327.37 125.284 327.508 127.789C327.568 129.131 327.469 130.473 327.528 131.854L327.449 135.741L330.8 135.8Z" fill="#DFD5BE"/>
<path fill-rule="evenodd" clip-rule="evenodd" d="M175.502 134.774H530.013L525.953 142.606H171.461L175.502 134.774Z" fill="#DFD5BE"/>
<path fill-rule="evenodd" clip-rule="evenodd" d="M95.3788 134.774H126.876L123.407 142.606H92.4616L95.3788 134.774Z" fill="#DFD5BE"/>
<path fill-rule="evenodd" clip-rule="evenodd" d="M0.118263 134.833L65.9905 134.774L62.5215 142.606H0L0.118263 134.833Z" fill="#DFD5BE"/>
<path fill-rule="evenodd" clip-rule="evenodd" d="M647.882 134.833L592.633 134.774L588.12 142.843L648 142.606L647.882 134.833Z" fill="#DFD5BE"/>
<path d="M488.917 163.481C487.675 163.481 486.631 163.915 485.783 164.802C484.936 165.671 484.502 166.894 484.502 168.452C484.502 169.952 484.896 171.175 485.685 172.102C486.473 173.049 487.557 173.523 488.917 173.523C490.277 173.523 491.361 173.03 492.169 172.063C492.977 171.096 493.391 169.893 493.391 168.492C493.391 166.894 492.938 165.651 492.031 164.783C491.125 163.915 490.08 163.481 488.917 163.481ZM493.273 163.638V161.725H495.619V175.2H493.273V173.326C492.11 174.845 490.573 175.595 488.661 175.595C486.847 175.595 485.29 174.963 484.029 173.701C482.748 172.438 482.117 170.682 482.117 168.433C482.117 166.223 482.748 164.506 484.009 163.244C485.271 162.001 486.828 161.369 488.661 161.369C490.612 161.409 492.15 162.159 493.273 163.638ZM480.481 163.875H476.263V175.22H473.917V163.875H469.699V161.725H480.481V163.875ZM461.303 173.523C462.623 173.523 463.688 173.049 464.476 172.083C465.284 171.116 465.678 169.952 465.678 168.551C465.678 166.992 465.245 165.749 464.358 164.842C463.471 163.934 462.446 163.481 461.283 163.481C460.12 163.481 459.076 163.934 458.169 164.842C457.262 165.749 456.809 166.973 456.809 168.512C456.809 169.912 457.223 171.096 458.051 172.063C458.878 173.049 459.962 173.523 461.303 173.523ZM456.927 173.326V182.816H454.582V161.725H456.927V163.599C458.11 162.119 459.647 161.389 461.539 161.389C463.55 161.389 465.146 162.099 466.329 163.52C467.512 164.941 468.103 166.618 468.103 168.531C468.103 170.485 467.512 172.142 466.349 173.523C465.166 174.924 463.589 175.595 461.618 175.595C459.647 175.595 458.09 174.845 456.927 173.326ZM447.23 164.822C446.303 163.934 445.199 163.481 443.879 163.481C442.558 163.481 441.435 163.934 440.528 164.822C439.602 165.73 439.148 166.953 439.148 168.512C439.148 170.07 439.621 171.293 440.548 172.181C441.474 173.069 442.598 173.503 443.899 173.503C445.199 173.503 446.303 173.049 447.249 172.181C448.176 171.293 448.649 170.07 448.649 168.512C448.609 166.933 448.156 165.71 447.23 164.822ZM448.984 173.582C447.624 174.924 445.929 175.595 443.879 175.595C441.829 175.595 440.114 174.924 438.774 173.582C437.414 172.241 436.744 170.544 436.744 168.512C436.744 166.46 437.414 164.763 438.774 163.402C440.134 162.06 441.829 161.389 443.879 161.389C445.929 161.389 447.643 162.06 448.984 163.402C450.344 164.743 451.014 166.44 451.014 168.512C451.014 170.563 450.344 172.241 448.984 173.582ZM425.982 163.579V173.365C427.46 173.424 428.702 173.109 429.707 172.398C430.968 171.51 431.599 170.208 431.599 168.472C431.599 166.637 430.929 165.296 429.589 164.447C428.603 163.796 427.401 163.52 425.982 163.579ZM423.656 173.365V163.579C422.256 163.52 421.054 163.796 420.049 164.428C418.709 165.276 418.038 166.618 418.038 168.452C418.038 170.189 418.669 171.491 419.931 172.379C420.936 173.109 422.178 173.424 423.656 173.365ZM423.656 182.816V175.437C421.291 175.437 419.398 174.845 417.979 173.681C416.422 172.398 415.634 170.662 415.634 168.452C415.634 166.243 416.402 164.506 417.94 163.263C419.32 162.099 421.232 161.508 423.656 161.508V153.556H426.001V161.508C428.426 161.508 430.338 162.099 431.717 163.263C433.255 164.526 434.024 166.243 434.024 168.452C434.024 170.662 433.235 172.398 431.678 173.681C430.259 174.845 428.347 175.437 426.001 175.437V182.816H423.656ZM396.101 175.22L399.353 160.699L404.931 171.688L410.391 160.699L413.643 175.22H411.238L409.445 166.874L404.872 176.167L400.24 166.874L398.525 175.22H396.101ZM390.306 164.822C389.379 163.934 388.276 163.481 386.955 163.481C385.634 163.481 384.511 163.934 383.604 164.822C382.678 165.73 382.225 166.953 382.225 168.512C382.225 170.07 382.698 171.293 383.624 172.181C384.55 173.069 385.674 173.503 386.975 173.503C388.276 173.503 389.379 173.049 390.326 172.181C391.252 171.293 391.725 170.07 391.725 168.512C391.686 166.933 391.213 165.71 390.306 164.822ZM392.06 173.582C390.7 174.924 389.005 175.595 386.955 175.595C384.905 175.595 383.19 174.924 381.85 173.582C380.49 172.241 379.82 170.544 379.82 168.512C379.82 166.46 380.49 164.763 381.85 163.402C383.21 162.06 384.905 161.389 386.955 161.389C389.005 161.389 390.72 162.06 392.06 163.402C393.42 164.743 394.09 166.44 394.09 168.512C394.09 170.563 393.4 172.241 392.06 173.582ZM366.949 161.725H369.295V167.249L374.754 161.725H377.612L371.778 167.742L378.342 175.22H375.286L370.024 169.301L369.314 169.991V175.22H366.969V161.725H366.949ZM352.639 167.841V163.816H350.471C349.446 163.816 348.756 163.934 348.362 164.171C347.79 164.546 347.515 165.098 347.515 165.828C347.515 166.558 347.79 167.111 348.362 167.446C348.776 167.703 349.466 167.841 350.432 167.841H352.639ZM344.597 175.22L348.776 169.656C348.638 169.656 348.461 169.636 348.244 169.597C348.007 169.557 347.692 169.439 347.258 169.281C346.825 169.103 346.47 168.886 346.194 168.59C345.484 167.92 345.13 167.012 345.13 165.888C345.13 164.605 345.524 163.599 346.332 162.869C347.14 162.119 348.461 161.725 350.294 161.725H355.004V175.2H352.659V169.774H351.24L347.416 175.2H344.597V175.22ZM330.169 161.725H332.515V170.623L341.739 160.679V175.2H339.394V166.203L330.169 176.147V161.725ZM319.821 173.523C321.142 173.523 322.206 173.049 322.995 172.083C323.803 171.116 324.197 169.952 324.197 168.551C324.197 166.992 323.763 165.749 322.876 164.842C321.99 163.934 320.965 163.481 319.802 163.481C318.639 163.481 317.594 163.934 316.687 164.842C315.781 165.749 315.327 166.973 315.327 168.512C315.327 169.912 315.741 171.096 316.569 172.063C317.397 173.049 318.481 173.523 319.821 173.523ZM315.446 173.326V182.816H313.1V161.725H315.446V163.599C316.628 162.119 318.166 161.389 320.058 161.389C322.068 161.389 323.665 162.099 324.848 163.52C326.03 164.941 326.621 166.618 326.621 168.531C326.621 170.485 326.03 172.142 324.867 173.523C323.704 174.904 322.127 175.595 320.156 175.595C318.185 175.595 316.609 174.845 315.446 173.326ZM305.748 164.822C304.822 163.934 303.718 163.481 302.397 163.481C301.077 163.481 299.953 163.934 299.047 164.822C298.12 165.73 297.667 166.953 297.667 168.512C297.667 170.07 298.14 171.293 299.066 172.181C299.993 173.069 301.116 173.503 302.417 173.503C303.718 173.503 304.822 173.049 305.768 172.181C306.694 171.293 307.167 170.07 307.167 168.512C307.128 166.933 306.675 165.71 305.748 164.822ZM307.502 173.582C306.142 174.924 304.447 175.595 302.397 175.595C300.347 175.595 298.633 174.924 297.292 173.582C295.932 172.241 295.262 170.544 295.262 168.512C295.262 166.46 295.932 164.763 297.292 163.402C298.652 162.06 300.347 161.389 302.397 161.389C304.447 161.389 306.162 162.06 307.502 163.402C308.862 164.743 309.533 166.44 309.533 168.512C309.533 170.563 308.862 172.241 307.502 173.582ZM293.626 163.875H289.408V175.22H287.063V163.875H282.845V161.725H293.626V163.875ZM268.831 161.725H271.176V170.623L280.401 160.679V175.2H278.055V166.203L268.831 176.147V161.725ZM258.483 173.523C259.803 173.523 260.867 173.049 261.656 172.083C262.464 171.116 262.858 169.952 262.858 168.551C262.858 166.992 262.425 165.749 261.538 164.842C260.651 163.934 259.626 163.481 258.463 163.481C257.3 163.481 256.255 163.934 255.349 164.842C254.442 165.749 253.989 166.973 253.989 168.512C253.989 169.912 254.402 171.096 255.23 172.063C256.058 173.049 257.142 173.523 258.483 173.523ZM254.107 173.326V182.816H251.761V161.725H254.107V163.599C255.289 162.119 256.827 161.389 258.719 161.389C260.73 161.389 262.326 162.099 263.509 163.52C264.691 164.941 265.283 166.618 265.283 168.531C265.283 170.485 264.691 172.142 263.528 173.523C262.365 174.904 260.789 175.595 258.818 175.595C256.847 175.595 255.27 174.845 254.107 173.326ZM241.413 173.523C242.734 173.523 243.798 173.049 244.587 172.083C245.395 171.116 245.789 169.952 245.789 168.551C245.789 166.992 245.355 165.749 244.468 164.842C243.581 163.934 242.557 163.481 241.394 163.481C240.231 163.481 239.186 163.934 238.279 164.842C237.373 165.749 236.919 166.973 236.919 168.512C236.919 169.912 237.333 171.096 238.161 172.063C238.989 173.049 240.073 173.523 241.413 173.523ZM237.038 173.326V182.816H234.692V161.725H237.038V163.599C238.22 162.119 239.758 161.389 241.65 161.389C243.66 161.389 245.257 162.099 246.439 163.52C247.622 164.941 248.213 166.618 248.213 168.531C248.213 170.485 247.622 172.142 246.459 173.523C245.296 174.904 243.719 175.595 241.748 175.595C239.777 175.595 238.201 174.845 237.038 173.326ZM220.796 166.992H228.72C228.523 165.927 228.069 165.079 227.34 164.447C226.611 163.816 225.763 163.481 224.758 163.481C223.792 163.481 222.925 163.816 222.176 164.467C221.427 165.138 220.974 165.966 220.796 166.992ZM229.075 170.702L231.026 171.767C230.573 172.635 230.021 173.365 229.37 173.937C228.128 175.042 226.65 175.595 224.896 175.595C223.083 175.595 221.506 175.003 220.205 173.819C218.904 172.635 218.234 170.879 218.234 168.531C218.234 166.479 218.825 164.763 220.008 163.421C221.19 162.06 222.767 161.389 224.758 161.389C227.005 161.389 228.7 162.218 229.863 163.855C230.77 165.158 231.184 166.835 231.124 168.926H220.639C220.658 170.287 221.072 171.392 221.9 172.241C222.728 173.089 223.733 173.503 224.916 173.503C225.98 173.503 226.887 173.188 227.675 172.536C228.286 172.023 228.759 171.412 229.075 170.702ZM216.618 163.875H212.4V175.22H210.054V163.875H205.836V161.725H216.618V163.875Z" fill="#DFD5BE"/>
<path d="M259.35 104.745C258.877 104.528 258.364 104.212 257.852 103.798C256.906 103.108 256.078 102.121 255.349 100.819C254.639 99.5167 254.245 98.1948 254.205 96.8138C251.722 98.9248 249.692 101.411 248.115 104.272C246.479 107.29 245.395 110.329 244.863 113.426C244.33 116.524 244.606 118.497 245.651 119.325C246.814 120.272 248.47 120.016 250.598 118.536C252.747 117.056 254.738 114.571 256.571 111.078C257.753 108.908 258.66 106.797 259.35 104.745ZM259.902 102.595C260.532 100.049 260.749 98.0962 260.532 96.7348C260.434 95.9457 260.197 95.4327 259.862 95.1959C259.527 94.9592 259.172 95.0184 258.837 95.3538C258.502 95.6892 258.266 96.2416 258.167 96.9716C257.753 99.2405 258.325 101.115 259.902 102.595ZM266.721 104.745C266.189 105.317 265.48 105.672 264.573 105.771C263.666 109.362 262.07 112.815 259.744 116.109C257.418 119.404 254.856 121.535 252.057 122.502C248.194 123.765 244.882 122.601 242.083 119.01C240.447 116.524 239.777 113.762 240.073 110.723C240.369 107.685 241.453 104.508 243.365 101.174C244.941 98.3132 246.873 95.9259 249.14 93.9924C251.406 92.0589 253.673 91.0132 255.96 90.8554C258.128 90.6975 259.921 91.6051 261.341 93.5584C261.597 93.9332 262.05 94.4462 262.681 95.0973C263.312 95.7484 263.785 96.3008 264.1 96.7151C264.415 97.1294 264.672 97.8397 264.888 98.8262C265.105 99.8127 265.145 100.957 265.046 102.279C264.987 102.496 264.967 102.792 264.967 103.186C264.967 103.581 264.948 103.877 264.888 104.094C265.046 104.094 265.302 104.074 265.637 104.015C265.973 103.956 266.248 103.936 266.465 103.936C267.057 103.956 267.155 104.212 266.721 104.745ZM229.015 122.975C226.118 122.975 224.206 121.851 223.28 119.602C222.353 117.352 222.491 114.61 223.713 111.394C224.659 108.691 226.197 105.376 228.306 101.45C230.415 97.5043 232.268 94.4067 233.844 92.1378C234.534 91.1908 235.165 91.033 235.737 91.6643C236.427 92.414 236.801 93.5189 236.84 94.9986C236.9 96.4784 236.505 98.254 235.658 100.306C235.244 101.154 234.18 103.127 232.484 106.245C230.789 109.362 229.626 111.67 228.996 113.15C228.05 115.478 227.616 117.333 227.734 118.694C227.833 120.075 228.523 120.726 229.784 120.667C231.479 120.608 233.293 119.503 235.244 117.333C237.195 115.162 238.812 112.657 240.073 109.796C240.487 109.007 240.921 109.007 241.334 109.796C241.965 111.019 241.788 112.657 240.783 114.709C239.62 117.135 237.925 119.128 235.717 120.647C233.529 122.206 231.282 122.975 229.015 122.975ZM229.883 102.279L229.252 105.85C228.03 106.422 225.803 107.073 222.55 107.783C219.298 108.494 216.381 109.066 213.799 109.48L209.837 110.112C208.891 110.329 208.438 109.973 208.497 109.086C208.556 108.079 209.128 107.31 210.231 106.777C210.448 106.679 210.645 106.6 210.862 106.541C221.131 105.081 227.458 103.66 229.883 102.279ZM221.644 98.9446C216.677 107.724 212.675 115.458 209.601 122.186C209.226 123.035 208.733 123.133 208.103 122.502C206.368 120.766 206.092 118.043 207.314 114.334C208.103 111.907 209.778 108.356 212.301 103.66C214.844 98.984 217.406 94.7421 219.988 90.9343C220.56 90.0267 221.131 90.0267 221.644 90.9343C222.274 91.9997 222.629 93.2427 222.669 94.7027C222.728 96.1627 222.393 97.5832 221.644 98.9446ZM192.748 115.36C188.846 120.588 185.041 123.074 181.336 122.818C179.542 122.719 178.241 122.048 177.414 120.845C176.586 119.621 176.211 118.221 176.27 116.603C176.329 114.985 176.665 113.229 177.295 111.335C179.345 105.199 182.992 98.4711 188.235 91.1119C188.865 90.2043 189.555 90.1846 190.284 91.033C192.078 93.7359 191.585 97.2873 188.786 101.746C186.402 105.554 184.352 109.441 182.617 113.406C181.77 115.36 181.395 116.978 181.513 118.24C181.612 119.503 182.124 120.193 183.011 120.292C185.652 120.509 189.555 116.425 194.739 108.079C196.375 105.436 198.208 102.239 200.238 98.4908C202.268 94.7421 203.707 92.2759 204.555 91.1119C205.304 90.0465 205.954 89.8886 206.526 90.6384C207.216 91.4275 207.59 92.5916 207.63 94.1305C207.689 95.6694 207.295 97.4648 206.447 99.5167C205.974 100.523 204.772 102.654 202.84 105.929C200.908 109.204 199.607 111.591 198.918 113.071C198.228 114.551 197.814 115.892 197.656 117.076C197.498 118.26 197.617 119.187 198.011 119.858C198.405 120.509 199.075 120.825 200.021 120.766C203.037 120.608 206.526 116.958 210.468 109.816C210.685 109.441 210.921 109.243 211.217 109.224C211.513 109.204 211.729 109.362 211.887 109.737C212.459 110.901 212.222 112.558 211.178 114.728C209.955 117.056 208.241 119.049 206.033 120.706C203.806 122.364 201.579 123.212 199.292 123.212C196.809 123.212 195.015 122.502 193.911 121.062C192.827 119.641 192.413 117.747 192.748 115.36ZM155.988 127.572C152.815 129.427 150.154 131.755 147.986 134.596C145.818 137.418 144.399 139.923 143.748 142.093C143.078 144.264 143.019 145.684 143.551 146.375C143.926 146.908 144.753 146.434 146.054 144.994C147.355 143.534 148.912 141.225 150.765 138.049C152.598 134.872 154.352 131.38 155.988 127.572ZM163.754 108.474C167.657 101.707 169.135 97.3465 168.189 95.3932C167.972 94.9789 167.637 94.7421 167.164 94.683C165.903 94.5843 164.01 95.6892 161.507 98.0173C159.004 100.345 156.698 103.167 154.569 106.501C153.189 108.731 152.164 110.921 151.475 113.091C150.785 115.261 150.529 117.017 150.726 118.359C150.903 119.7 151.534 120.371 152.578 120.371C154.057 120.43 155.752 119.385 157.644 117.234C159.556 115.083 161.586 112.163 163.754 108.474ZM178.32 114.649C175.62 118.832 170.495 122.285 162.946 125.027C161.625 128.243 160.443 131.005 159.379 133.314C158.314 135.622 157.072 138.088 155.614 140.772C154.155 143.455 152.677 145.625 151.14 147.361C149.602 149.078 148.084 150.222 146.547 150.814C144.753 151.564 143.216 150.992 141.954 149.157C139.786 146.039 139.254 142.764 140.378 139.331C142.447 132.88 148.084 127.888 157.329 124.337C157.644 123.705 158.058 122.758 158.551 121.515C159.043 120.272 159.418 119.385 159.615 118.852C156.974 121.496 154.313 122.818 151.613 122.818C149.228 122.818 147.473 121.871 146.35 119.957C145.207 118.063 144.911 115.577 145.443 112.538C145.975 109.5 147.257 106.442 149.326 103.384C152.224 99.1024 155.16 95.9062 158.117 93.7951C161.074 91.684 163.695 90.6186 165.962 90.6186C167.499 90.6186 168.662 91.1119 169.49 92.1181C170.318 93.1243 170.692 94.3673 170.633 95.847L173.255 91.4867C173.945 90.3227 174.595 90.1648 175.226 91.0132C175.916 91.8024 176.29 92.9467 176.329 94.4265C176.389 95.9062 175.955 97.6819 175.068 99.7338C169.313 111.256 165.745 118.595 164.365 121.772C169.963 118.97 174.694 115.005 178.537 109.875C178.695 109.658 178.872 109.52 179.049 109.441C179.227 109.362 179.404 109.382 179.562 109.48C179.72 109.579 179.818 109.776 179.877 110.033C180.114 111.059 179.582 112.598 178.32 114.649ZM137.855 104.745C137.382 104.528 136.869 104.212 136.357 103.798C135.411 103.108 134.583 102.121 133.854 100.819C133.144 99.5167 132.75 98.1948 132.71 96.8138C130.227 98.9248 128.197 101.411 126.62 104.272C124.984 107.29 123.9 110.329 123.368 113.426C122.835 116.524 123.111 118.497 124.156 119.325C125.319 120.272 126.975 120.016 129.103 118.536C131.252 117.056 133.242 114.571 135.076 111.078C136.238 108.908 137.165 106.797 137.855 104.745ZM138.407 102.595C139.037 100.049 139.254 98.0962 139.037 96.7348C138.939 95.9457 138.702 95.4327 138.367 95.1959C138.032 94.9592 137.677 95.0184 137.342 95.3538C137.007 95.6892 136.771 96.2416 136.672 96.9716C136.238 99.2405 136.81 101.115 138.407 102.595ZM145.207 104.745C144.675 105.317 143.965 105.672 143.058 105.771C142.152 109.362 140.555 112.815 138.229 116.109C135.903 119.404 133.341 121.535 130.542 122.502C126.679 123.765 123.368 122.601 120.569 119.01C118.933 116.524 118.263 113.762 118.558 110.723C118.854 107.685 119.938 104.508 121.85 101.174C123.427 98.3132 125.358 95.9259 127.625 93.9924C129.892 92.0589 132.158 91.0132 134.445 90.8554C136.613 90.6975 138.407 91.6051 139.826 93.5584C140.082 93.9332 140.535 94.4462 141.166 95.0973C141.797 95.7484 142.27 96.3008 142.585 96.7151C142.901 97.1294 143.157 97.8397 143.374 98.8262C143.59 99.8127 143.63 100.957 143.531 102.279C143.472 102.496 143.452 102.792 143.452 103.186C143.452 103.581 143.433 103.877 143.374 104.094C143.531 104.094 143.788 104.074 144.123 104.015C144.458 103.956 144.734 103.936 144.95 103.936C145.562 103.956 145.64 104.212 145.207 104.745ZM95.8715 107.428C94.8071 110.013 94.2552 112.341 94.2158 114.413C94.1567 116.465 94.6692 118.003 95.7138 119.01C96.9359 120.016 98.6507 119.365 100.858 117.076C103.086 114.768 105.155 111.651 107.106 107.685C108.644 104.508 109.61 101.529 110.004 98.7275C110.398 95.9259 110.102 94.2884 109.097 93.8148C108.151 93.3413 106.594 93.9924 104.465 95.7878C102.317 97.5832 100.365 99.9705 98.5718 102.93C97.3892 104.824 96.5022 106.323 95.8715 107.428ZM103.854 121.476C110.457 121.062 115.464 117.195 118.913 109.895C119.169 109.362 119.465 109.125 119.78 109.184C120.096 109.243 120.312 109.48 120.411 109.895C120.785 111.473 120.431 113.229 119.386 115.123C116.528 120.312 111.837 123.133 105.293 123.607C100.326 123.922 96.6008 122.936 94.1173 120.667C92.5799 119.286 91.6929 117.53 91.417 115.36C87.1989 123.074 83.3357 130.986 79.8469 139.075C79.4724 139.923 79.0191 139.982 78.5066 139.233C77.186 137.437 77.1663 134.537 78.4278 130.512C79.5907 126.763 82.6852 120.095 87.7311 110.486C92.777 100.898 96.5614 94.4067 99.104 91.0132C99.8924 89.9478 100.523 89.9873 100.996 91.0921C101.371 92.0984 101.528 93.2821 101.469 94.6632C106.279 90.4805 110.122 89.9281 113.039 93.0059C116.213 96.3797 115.917 102.259 112.172 110.605C109.748 115.952 106.988 119.562 103.854 121.476ZM79.709 104.745C79.2359 104.528 78.7234 104.212 78.211 103.798C77.2649 103.108 76.437 102.121 75.7077 100.819C74.9982 99.5167 74.604 98.1948 74.5645 96.8138C72.081 98.9248 70.0509 101.411 68.474 104.272C66.8381 107.29 65.754 110.329 65.2218 113.426C64.6896 116.524 64.9656 118.497 66.0102 119.325C67.1731 120.272 68.8288 120.016 70.9575 118.536C73.106 117.056 75.0967 114.571 76.9298 111.078C78.0927 108.908 79.0191 106.797 79.709 104.745ZM80.2609 102.595C80.8916 100.049 81.1084 98.0962 80.8916 96.7348C80.793 95.9457 80.5565 95.4327 80.2214 95.1959C79.8864 94.9592 79.5316 95.0184 79.1965 95.3538C78.8614 95.6892 78.6249 96.2416 78.5263 96.9716C78.0927 99.2405 78.6643 101.115 80.2609 102.595ZM87.0609 104.745C86.5288 105.317 85.8192 105.672 84.9125 105.771C84.0058 109.362 82.4093 112.815 80.0835 116.109C77.7576 119.404 75.1953 121.535 72.3964 122.502C68.5331 123.765 65.2218 122.601 62.4229 119.01C60.7869 116.524 60.1168 113.762 60.4124 110.723C60.7081 107.685 61.7922 104.508 63.7041 101.174C65.2809 98.3132 67.2125 95.9259 69.4792 93.9924C71.7459 92.0589 74.0126 91.0132 76.2991 90.8554C78.4672 90.6975 80.2608 91.6051 81.68 93.5584C81.9362 93.9332 82.3896 94.4462 83.0203 95.0973C83.651 95.7484 84.1241 96.3008 84.4395 96.7151C84.7548 97.1294 85.0111 97.8397 85.2279 98.8262C85.4447 99.8127 85.4841 100.957 85.3856 102.279C85.3264 102.496 85.3067 102.792 85.3067 103.186C85.3067 103.581 85.287 103.877 85.2279 104.094C85.3856 104.094 85.6418 104.074 85.9769 104.015C86.312 103.956 86.5879 103.936 86.8047 103.936C87.4157 103.956 87.4946 104.212 87.0609 104.745ZM57.042 79.3727L52.2129 80.1619C49.7885 80.5367 47.9555 80.7143 46.7531 80.7143C44.585 80.7143 42.6336 80.2605 40.8991 79.3332C39.1646 78.4059 38.2776 77.2419 38.2776 75.8016C38.2776 75.3873 38.5142 75.1703 38.9872 75.1703C39.204 75.1703 39.5588 75.19 40.0516 75.2097C40.5443 75.2294 40.9385 75.2492 41.1948 75.2492C43.7768 75.2492 47.8569 74.8743 53.3955 74.1049C58.9342 73.3354 62.3244 72.9605 63.5267 72.9605C65.3795 72.9605 67.1731 73.3157 68.9076 74.0259C70.6422 74.7362 71.5291 75.8805 71.5291 77.4786C71.5291 77.9521 71.2335 78.1889 70.6619 78.1889C70.4056 78.1889 69.9917 78.1692 69.4792 78.1494C68.9471 78.1297 68.5529 78.11 68.2966 78.11C66.0891 78.0508 62.3244 78.4651 57.042 79.3727ZM30.3541 107.349L30.5117 105.85C30.5709 104.844 30.6891 103.838 30.9059 102.792C31.1228 101.766 31.379 101.174 31.6944 101.016C36.1292 98.5303 40.9188 97.2873 46.0238 97.2873C49.6111 97.2873 52.4889 98.1948 54.6176 100.03C56.766 101.845 57.791 104.173 57.7515 106.975C57.6924 109.875 56.6872 112.459 54.6964 114.709C52.7254 116.958 50.3207 118.655 47.5218 119.779C44.723 120.923 42.1409 121.752 39.7953 122.324C37.4498 122.877 35.5773 123.153 34.2173 123.153C31.9506 123.153 29.7824 122.383 27.7129 120.845C25.663 119.306 24.6183 117.491 24.6183 115.379C24.6183 112.519 26.6288 107.113 30.6694 99.1616C34.7101 91.2105 38.7704 84.167 42.8307 78.0311C43.6783 77.8732 44.3879 77.7943 44.9792 77.7943C46.6152 77.7943 47.443 78.4059 47.443 79.6094C47.443 80.5565 46.8911 82.1546 45.7873 84.4038C44.6835 86.653 42.9884 89.7111 40.7217 93.5584C38.455 97.4254 36.9768 100.01 36.2869 101.332C31.7535 109.678 29.4671 114.886 29.4671 116.958C29.4671 118.122 30.1372 118.694 31.4381 118.694C32.4434 118.694 34.099 118.398 36.4249 117.826C38.7507 117.254 41.2539 116.445 43.9542 115.439C46.6546 114.432 49.0001 113.091 51.0106 111.394C53.021 109.697 54.0263 107.961 54.0263 106.166C54.0263 102.989 51.7793 101.411 47.2853 101.411C42.338 101.352 36.7008 103.344 30.3541 107.349Z" fill="#DFD5BE"/>
<path d="M585.833 106.738C588.731 108.533 591.884 107.211 595.255 102.772C596.575 101.075 597.561 99.3786 598.231 97.6621C598.882 95.9457 598.96 94.8802 598.428 94.4462C597.857 93.9727 596.851 94.1305 595.452 94.9197C594.053 95.7089 592.495 97.0702 590.781 98.9643C589.066 100.858 587.627 103.009 586.464 105.396C586.149 106.008 585.932 106.462 585.833 106.738ZM585.124 108.474C583.902 112.124 583.665 115.103 584.375 117.392C585.084 119.7 586.523 120.884 588.691 121.002C591.648 121.16 594.506 120.115 597.246 117.865C599.985 115.616 602.39 112.913 604.46 109.737C604.992 108.948 605.445 108.967 605.8 109.816C606.017 110.191 605.997 110.861 605.76 111.828C605.524 112.815 605.09 113.762 604.46 114.728C602.765 117.214 600.518 119.246 597.679 120.825C594.861 122.403 591.944 123.232 588.928 123.291C583.961 123.35 580.669 121.318 579.033 117.195C577.397 113.071 577.89 108.454 580.531 103.325C582.956 98.4711 585.912 94.9394 589.361 92.7494C592.83 90.5594 595.61 90.0662 597.719 91.2894C599.729 92.5127 601.286 93.874 602.39 95.413C603.178 96.2613 603.356 97.8002 602.903 100.01C602.449 102.239 601.444 104.291 599.847 106.185C598.468 107.823 597.029 109.066 595.531 109.914C594.033 110.763 592.357 111.098 590.544 110.901C588.711 110.703 586.917 109.895 585.124 108.474ZM556.603 127.829C553.429 129.683 550.768 132.012 548.6 134.853C546.432 137.674 545.013 140.18 544.363 142.35C543.692 144.52 543.633 145.941 544.165 146.631C544.54 147.164 545.368 146.691 546.669 145.25C547.97 143.79 549.527 141.482 551.379 138.305C553.213 135.109 554.967 131.637 556.603 127.829ZM564.369 108.711C568.271 101.943 569.75 97.5832 568.803 95.63C568.587 95.2157 568.252 94.9789 567.779 94.9197C566.517 94.8211 564.625 95.9259 562.122 98.254C559.618 100.582 557.312 103.403 555.184 106.738C553.804 108.948 552.779 111.157 552.089 113.328C551.399 115.498 551.143 117.254 551.34 118.595C551.517 119.937 552.148 120.608 553.193 120.608C554.671 120.667 556.366 119.621 558.258 117.471C560.17 115.34 562.2 112.42 564.369 108.711ZM578.935 114.906C576.234 119.089 571.11 122.541 563.561 125.284C562.24 128.5 561.057 131.262 559.993 133.57C558.929 135.879 557.687 138.345 556.228 141.028C554.77 143.692 553.291 145.882 551.754 147.618C550.217 149.334 548.699 150.479 547.161 151.071C545.368 151.82 543.83 151.248 542.569 149.413C540.401 146.296 539.869 143.021 540.992 139.588C543.062 133.136 548.699 128.145 557.943 124.593C558.258 123.962 558.672 123.015 559.165 121.772C559.658 120.529 560.032 119.641 560.229 119.108C557.588 121.752 554.927 123.074 552.227 123.074C549.842 123.074 548.088 122.127 546.964 120.213C545.821 118.319 545.525 115.833 546.058 112.795C546.59 109.756 547.871 106.698 549.941 103.64C552.838 99.3589 555.775 96.1627 558.731 94.0516C561.688 91.9405 564.31 90.8751 566.576 90.8751C568.114 90.8751 569.276 91.3684 570.104 92.3746C570.932 93.3808 571.307 94.6238 571.248 96.1035L573.869 91.7432C574.559 90.5792 575.209 90.4213 575.84 91.2697C576.53 92.0589 576.904 93.2032 576.944 94.683C577.003 96.1627 576.569 97.9384 575.682 99.9902C569.927 111.512 566.359 118.852 564.98 122.028C570.577 119.227 575.308 115.261 579.151 110.131C579.309 109.914 579.487 109.776 579.664 109.697C579.841 109.618 580.019 109.638 580.176 109.737C580.334 109.835 580.433 110.033 580.492 110.289C580.728 111.295 580.196 112.834 578.935 114.906ZM532.595 108.553C534.172 105.751 535.375 103.285 536.163 101.174C536.951 99.0629 537.326 97.4648 537.267 96.4192C537.208 95.3538 536.794 94.7816 536.005 94.683C534.685 94.5843 532.773 95.6892 530.27 98.0173C527.766 100.345 525.46 103.226 523.332 106.659C521.952 108.888 520.927 111.059 520.237 113.209C519.547 115.36 519.291 117.116 519.449 118.477C519.606 119.858 520.198 120.529 521.183 120.529C522.721 120.588 524.455 119.542 526.406 117.392C528.377 115.261 530.427 112.302 532.595 108.553ZM539.494 96.2613C540.657 94.0911 541.603 92.4732 542.352 91.4275C543.101 90.3621 543.732 90.2043 544.244 90.954C544.934 91.7432 545.309 92.8875 545.348 94.4067C545.407 95.9062 545.013 97.7016 544.165 99.7535C543.692 100.76 542.47 102.91 540.519 106.225C538.568 109.52 537.247 111.946 536.557 113.485C535.867 114.965 535.414 116.287 535.217 117.451C535 118.615 535.059 119.542 535.375 120.233C535.69 120.923 536.301 121.239 537.188 121.18C538.725 121.121 540.46 120.016 542.411 117.846C544.363 115.675 546.077 113.111 547.556 110.151C548.029 109.303 548.462 109.283 548.817 110.072C549.349 111.236 549.113 112.874 548.107 114.985C547.004 117.313 545.348 119.325 543.16 121.042C540.972 122.758 538.824 123.567 536.695 123.469C534.586 123.37 532.97 122.719 531.866 121.575C530.762 120.411 530.21 118.872 530.21 116.978C526.998 121.101 523.686 123.153 520.316 123.153C517.891 123.153 516.098 122.186 514.974 120.253C513.831 118.319 513.535 115.833 514.068 112.755C514.6 109.697 515.92 106.6 518.029 103.482C521.045 99.1024 524.002 95.847 526.939 93.7359C529.875 91.6248 532.438 90.5594 534.665 90.5594C536.301 90.5594 537.543 91.0921 538.39 92.1773C539.218 93.2624 539.593 94.6238 539.494 96.2613ZM504.804 102.772C508.076 100.128 510.934 97.0308 513.397 93.4597C515.861 89.8886 517.517 86.9292 518.384 84.5813C519.251 82.2335 519.488 80.9116 519.054 80.6551C518.522 80.3394 517.024 82.0362 514.541 85.7257C512.057 89.4348 509.436 93.8346 506.696 98.9643C505.947 100.227 505.316 101.49 504.804 102.772ZM503.365 106.185C502.261 108.829 501.473 111.216 500.98 113.367C500.507 115.518 500.408 117.273 500.704 118.635C501 120.016 501.729 120.746 502.892 120.864C504.745 121.022 506.873 119.937 509.317 117.609C511.742 115.281 513.752 112.538 515.329 109.362C515.487 109.046 515.684 108.829 515.92 108.691C516.157 108.553 516.374 108.553 516.591 108.652C516.807 108.75 516.965 108.987 517.064 109.362C517.438 110.625 517.162 112.262 516.275 114.275C515.487 115.971 513.772 117.865 511.17 119.976C508.549 122.088 505.848 123.113 503.049 123.074C500.191 122.975 498.161 121.89 496.959 119.819C495.737 117.767 495.579 114.669 496.486 110.546C497.866 104.035 500.448 97.4648 504.252 90.7962C508.056 84.1275 512.156 78.5243 516.531 73.9865C517.753 72.7238 518.877 72.5857 519.941 73.5919C522.169 75.5451 522.76 78.4454 521.755 82.3124C520.592 86.8503 518.227 91.3289 514.619 95.7484C511.032 100.168 507.268 103.64 503.365 106.185ZM486.572 102.772C489.844 100.128 492.702 97.0308 495.165 93.4597C497.629 89.8886 499.285 86.9292 500.152 84.5813C501.019 82.2335 501.256 80.9116 500.822 80.6551C500.29 80.3394 498.792 82.0362 496.309 85.7257C493.825 89.4348 491.204 93.8346 488.464 98.9643C487.734 100.227 487.104 101.49 486.572 102.772ZM485.152 106.185C484.049 108.829 483.26 111.216 482.767 113.367C482.294 115.518 482.196 117.273 482.491 118.635C482.787 120.016 483.516 120.746 484.679 120.864C486.532 121.022 488.661 119.937 491.105 117.609C493.529 115.281 495.54 112.538 497.117 109.362C497.274 109.046 497.471 108.829 497.708 108.691C497.944 108.553 498.161 108.553 498.378 108.652C498.595 108.75 498.753 108.987 498.851 109.362C499.226 110.625 498.95 112.262 498.063 114.275C497.274 115.971 495.56 117.865 492.958 119.976C490.336 122.088 487.636 123.113 484.837 123.074C481.979 122.975 479.949 121.89 478.747 119.819C477.524 117.767 477.367 114.669 478.273 110.546C479.653 104.035 482.235 97.4648 486.039 90.7962C489.843 84.1275 493.943 78.5243 498.319 73.9865C499.541 72.7238 500.665 72.5857 501.729 73.5919C503.956 75.5451 504.547 78.4454 503.542 82.3124C502.379 86.8503 500.014 91.3289 496.407 95.7484C492.8 100.168 489.055 103.64 485.152 106.185ZM467.177 123.232C464.279 123.232 462.367 122.107 461.441 119.858C460.514 117.609 460.652 114.866 461.874 111.651C462.821 108.948 464.358 105.633 466.467 101.707C468.576 97.7608 470.429 94.6632 472.006 92.3943C472.695 91.4473 473.326 91.2894 473.898 91.9208C474.588 92.6705 474.962 93.7754 475.002 95.2551C475.061 96.7348 474.666 98.5105 473.819 100.562C473.405 101.411 472.341 103.384 470.646 106.501C468.95 109.618 467.788 111.927 467.157 113.406C466.211 115.735 465.777 117.589 465.895 118.951C465.994 120.332 466.684 120.983 467.945 120.923C469.64 120.864 471.454 119.759 473.405 117.589C475.356 115.419 476.973 112.913 478.234 110.052C478.648 109.263 479.082 109.263 479.496 110.052C480.126 111.276 479.949 112.913 478.944 114.965C477.781 117.392 476.086 119.385 473.878 120.904C471.69 122.462 469.443 123.232 467.177 123.232ZM480.087 85.6467C481.092 87.6986 480.915 89.4743 479.535 90.954C479.062 91.5262 478.352 91.7432 477.387 91.5459C476.44 91.3684 475.672 90.7567 475.08 89.7703C474.509 88.6654 474.253 87.5802 474.331 86.5148C474.41 85.4494 474.785 84.5813 475.475 83.8908C476.105 83.2003 476.894 83.0621 477.86 83.4567C478.806 83.8513 479.555 84.5813 480.087 85.6467ZM440.075 115.853C443.721 109.717 448.925 102.141 455.725 93.1046C462.505 84.0684 467.748 77.6167 471.454 73.7497C471.71 73.4932 471.966 73.3157 472.203 73.2367C472.439 73.1578 472.656 73.1973 472.873 73.3551C473.09 73.513 473.208 73.7694 473.267 74.1443C473.839 77.0446 472.4 80.813 468.911 85.41C468.753 85.627 466.487 88.5273 462.131 94.1305C457.775 99.7338 453.911 104.844 450.561 109.441C447.21 114.038 444.155 118.497 441.415 122.837C440.843 123.745 440.094 123.863 439.188 123.232C436.231 121.002 435.048 117.471 435.62 112.598C436.31 106.462 437.473 99.497 439.148 91.6643C440.804 83.8316 442.361 78.0311 443.78 74.2232C444.253 73.0592 444.845 72.9013 445.515 73.7497C447.249 75.7621 447.525 79.4911 446.303 84.9365C443.169 99.5167 441.08 109.816 440.075 115.853Z" fill="#DFD5BE"/>
</g>
<defs>
<clipPath id="clip0_0_64">
<rect width="648" height="182.816" fill="white"/>
</clipPath>
</defs>
</svg>
